<mxfile host="app.diagrams.net" modified="2024-09-06T05:54:32.408Z" agent="Mozilla/5.0 (X11; Linux x86_64) AppleWebKit/537.36 (KHTML, like Gecko) Chrome/128.0.0.0 Safari/537.36" etag="PVVG_H1RFzEC0DMUVge4" version="24.4.9" type="github">
  <diagram name="Page-1" id="hy2oFRqQvjaeFP1TpH-y">
    <mxGraphModel dx="2315" dy="1063" grid="0" gridSize="5" guides="1" tooltips="1" connect="1" arrows="1" fold="1" page="0" pageScale="1" pageWidth="850" pageHeight="1100" math="0" shadow="0">
      <root>
        <mxCell id="0" />
        <mxCell id="1" parent="0" />
        <mxCell id="8gEPXH_LTYy4HOlQ8OhR-413" value="" style="group;movable=0;resizable=0;rotatable=0;deletable=0;editable=0;locked=1;connectable=0;" vertex="1" connectable="0" parent="1">
          <mxGeometry x="160" y="100" width="1520" height="420" as="geometry" />
        </mxCell>
        <mxCell id="8gEPXH_LTYy4HOlQ8OhR-357" value="" style="endArrow=none;html=1;rounded=0;fontColor=#CCCCCC;strokeColor=#E6E6E6;strokeWidth=4;" edge="1" parent="8gEPXH_LTYy4HOlQ8OhR-413">
          <mxGeometry width="50" height="50" relative="1" as="geometry">
            <mxPoint y="420" as="sourcePoint" />
            <mxPoint as="targetPoint" />
          </mxGeometry>
        </mxCell>
        <mxCell id="8gEPXH_LTYy4HOlQ8OhR-359" value="" style="endArrow=none;html=1;rounded=0;fontColor=#CCCCCC;strokeColor=#F8F8F8;strokeWidth=4;" edge="1" parent="8gEPXH_LTYy4HOlQ8OhR-413">
          <mxGeometry width="50" height="50" relative="1" as="geometry">
            <mxPoint x="240" y="420" as="sourcePoint" />
            <mxPoint x="240" as="targetPoint" />
          </mxGeometry>
        </mxCell>
        <mxCell id="8gEPXH_LTYy4HOlQ8OhR-360" value="" style="endArrow=none;html=1;rounded=0;fontColor=#CCCCCC;strokeColor=#F8F8F8;strokeWidth=4;" edge="1" parent="8gEPXH_LTYy4HOlQ8OhR-413">
          <mxGeometry width="50" height="50" relative="1" as="geometry">
            <mxPoint x="160" y="420" as="sourcePoint" />
            <mxPoint x="160" as="targetPoint" />
          </mxGeometry>
        </mxCell>
        <mxCell id="8gEPXH_LTYy4HOlQ8OhR-361" value="" style="endArrow=none;html=1;rounded=0;fontColor=#CCCCCC;strokeColor=#F8F8F8;strokeWidth=4;" edge="1" parent="8gEPXH_LTYy4HOlQ8OhR-413">
          <mxGeometry width="50" height="50" relative="1" as="geometry">
            <mxPoint x="560" y="420" as="sourcePoint" />
            <mxPoint x="560" as="targetPoint" />
          </mxGeometry>
        </mxCell>
        <mxCell id="8gEPXH_LTYy4HOlQ8OhR-362" value="" style="endArrow=none;html=1;rounded=0;fontColor=#CCCCCC;strokeColor=#E6E6E6;strokeWidth=4;" edge="1" parent="8gEPXH_LTYy4HOlQ8OhR-413">
          <mxGeometry width="50" height="50" relative="1" as="geometry">
            <mxPoint x="480" y="420" as="sourcePoint" />
            <mxPoint x="480" as="targetPoint" />
          </mxGeometry>
        </mxCell>
        <mxCell id="8gEPXH_LTYy4HOlQ8OhR-363" value="" style="endArrow=none;html=1;rounded=0;fontColor=#CCCCCC;strokeColor=#F8F8F8;strokeWidth=4;" edge="1" parent="8gEPXH_LTYy4HOlQ8OhR-413">
          <mxGeometry width="50" height="50" relative="1" as="geometry">
            <mxPoint x="400" y="420" as="sourcePoint" />
            <mxPoint x="400" as="targetPoint" />
          </mxGeometry>
        </mxCell>
        <mxCell id="8gEPXH_LTYy4HOlQ8OhR-365" value="" style="endArrow=none;html=1;rounded=0;fontColor=#CCCCCC;strokeColor=#F8F8F8;strokeWidth=4;" edge="1" parent="8gEPXH_LTYy4HOlQ8OhR-413">
          <mxGeometry width="50" height="50" relative="1" as="geometry">
            <mxPoint x="1200" y="420" as="sourcePoint" />
            <mxPoint x="1200" as="targetPoint" />
          </mxGeometry>
        </mxCell>
        <mxCell id="8gEPXH_LTYy4HOlQ8OhR-366" value="" style="endArrow=none;html=1;rounded=0;fontColor=#CCCCCC;strokeColor=#F8F8F8;strokeWidth=4;" edge="1" parent="8gEPXH_LTYy4HOlQ8OhR-413">
          <mxGeometry width="50" height="50" relative="1" as="geometry">
            <mxPoint x="1120" y="420" as="sourcePoint" />
            <mxPoint x="1120" as="targetPoint" />
          </mxGeometry>
        </mxCell>
        <mxCell id="8gEPXH_LTYy4HOlQ8OhR-367" value="" style="endArrow=none;html=1;rounded=0;fontColor=#CCCCCC;strokeColor=#F8F8F8;strokeWidth=4;" edge="1" parent="8gEPXH_LTYy4HOlQ8OhR-413">
          <mxGeometry width="50" height="50" relative="1" as="geometry">
            <mxPoint x="1040" y="420" as="sourcePoint" />
            <mxPoint x="1040" as="targetPoint" />
          </mxGeometry>
        </mxCell>
        <mxCell id="8gEPXH_LTYy4HOlQ8OhR-368" value="" style="endArrow=none;html=1;rounded=0;fontColor=#CCCCCC;strokeColor=#E6E6E6;strokeWidth=4;" edge="1" parent="8gEPXH_LTYy4HOlQ8OhR-413">
          <mxGeometry width="50" height="50" relative="1" as="geometry">
            <mxPoint x="960" y="420" as="sourcePoint" />
            <mxPoint x="960" as="targetPoint" />
          </mxGeometry>
        </mxCell>
        <mxCell id="8gEPXH_LTYy4HOlQ8OhR-369" value="" style="endArrow=none;html=1;rounded=0;fontColor=#CCCCCC;strokeColor=#F8F8F8;strokeWidth=4;" edge="1" parent="8gEPXH_LTYy4HOlQ8OhR-413">
          <mxGeometry width="50" height="50" relative="1" as="geometry">
            <mxPoint x="880" y="420" as="sourcePoint" />
            <mxPoint x="880" as="targetPoint" />
          </mxGeometry>
        </mxCell>
        <mxCell id="8gEPXH_LTYy4HOlQ8OhR-370" value="" style="endArrow=none;html=1;rounded=0;fontColor=#CCCCCC;strokeColor=#F8F8F8;strokeWidth=4;" edge="1" parent="8gEPXH_LTYy4HOlQ8OhR-413">
          <mxGeometry width="50" height="50" relative="1" as="geometry">
            <mxPoint x="800" y="420" as="sourcePoint" />
            <mxPoint x="800" as="targetPoint" />
          </mxGeometry>
        </mxCell>
        <mxCell id="8gEPXH_LTYy4HOlQ8OhR-371" value="" style="endArrow=none;html=1;rounded=0;fontColor=#CCCCCC;strokeColor=#F8F8F8;strokeWidth=4;" edge="1" parent="8gEPXH_LTYy4HOlQ8OhR-413">
          <mxGeometry width="50" height="50" relative="1" as="geometry">
            <mxPoint x="720" y="420" as="sourcePoint" />
            <mxPoint x="720" as="targetPoint" />
          </mxGeometry>
        </mxCell>
        <mxCell id="8gEPXH_LTYy4HOlQ8OhR-372" value="" style="endArrow=none;html=1;rounded=0;fontColor=#CCCCCC;strokeColor=#F8F8F8;strokeWidth=4;" edge="1" parent="8gEPXH_LTYy4HOlQ8OhR-413">
          <mxGeometry width="50" height="50" relative="1" as="geometry">
            <mxPoint x="640" y="420" as="sourcePoint" />
            <mxPoint x="640" as="targetPoint" />
          </mxGeometry>
        </mxCell>
        <mxCell id="8gEPXH_LTYy4HOlQ8OhR-373" value="" style="endArrow=none;html=1;rounded=0;fontColor=#CCCCCC;strokeColor=#F8F8F8;strokeWidth=4;" edge="1" parent="8gEPXH_LTYy4HOlQ8OhR-413">
          <mxGeometry width="50" height="50" relative="1" as="geometry">
            <mxPoint x="1520" y="420" as="sourcePoint" />
            <mxPoint x="1520" as="targetPoint" />
          </mxGeometry>
        </mxCell>
        <mxCell id="8gEPXH_LTYy4HOlQ8OhR-374" value="" style="endArrow=none;html=1;rounded=0;fontColor=#CCCCCC;strokeColor=#E6E6E6;strokeWidth=4;" edge="1" parent="8gEPXH_LTYy4HOlQ8OhR-413">
          <mxGeometry width="50" height="50" relative="1" as="geometry">
            <mxPoint x="1440" y="420" as="sourcePoint" />
            <mxPoint x="1440" as="targetPoint" />
          </mxGeometry>
        </mxCell>
        <mxCell id="8gEPXH_LTYy4HOlQ8OhR-375" value="" style="endArrow=none;html=1;rounded=0;fontColor=#CCCCCC;strokeColor=#F8F8F8;strokeWidth=4;" edge="1" parent="8gEPXH_LTYy4HOlQ8OhR-413">
          <mxGeometry width="50" height="50" relative="1" as="geometry">
            <mxPoint x="1360" y="420" as="sourcePoint" />
            <mxPoint x="1360" as="targetPoint" />
          </mxGeometry>
        </mxCell>
        <mxCell id="8gEPXH_LTYy4HOlQ8OhR-376" value="" style="endArrow=none;html=1;rounded=0;fontColor=#CCCCCC;strokeColor=#F8F8F8;strokeWidth=4;" edge="1" parent="8gEPXH_LTYy4HOlQ8OhR-413">
          <mxGeometry width="50" height="50" relative="1" as="geometry">
            <mxPoint x="1280" y="420" as="sourcePoint" />
            <mxPoint x="1280" as="targetPoint" />
          </mxGeometry>
        </mxCell>
        <mxCell id="8gEPXH_LTYy4HOlQ8OhR-394" value="" style="endArrow=none;html=1;rounded=0;fontColor=#CCCCCC;strokeColor=#F8F8F8;strokeWidth=4;" edge="1" parent="8gEPXH_LTYy4HOlQ8OhR-413">
          <mxGeometry width="50" height="50" relative="1" as="geometry">
            <mxPoint x="80" y="420" as="sourcePoint" />
            <mxPoint x="80" as="targetPoint" />
          </mxGeometry>
        </mxCell>
        <mxCell id="8gEPXH_LTYy4HOlQ8OhR-364" value="" style="endArrow=none;html=1;rounded=0;fontColor=#CCCCCC;strokeColor=#F8F8F8;movable=1;resizable=1;rotatable=1;deletable=1;editable=1;locked=0;connectable=1;strokeWidth=4;" edge="1" parent="8gEPXH_LTYy4HOlQ8OhR-413">
          <mxGeometry width="50" height="50" relative="1" as="geometry">
            <mxPoint x="320" y="420" as="sourcePoint" />
            <mxPoint x="320" as="targetPoint" />
          </mxGeometry>
        </mxCell>
        <mxCell id="8gEPXH_LTYy4HOlQ8OhR-305" value="" style="curved=1;endArrow=none;html=1;rounded=0;endFill=0;fillColor=#d5e8d4;strokeColor=#82b366;dashed=1;dashPattern=1 1;" edge="1" parent="8gEPXH_LTYy4HOlQ8OhR-413">
          <mxGeometry width="50" height="50" relative="1" as="geometry">
            <mxPoint x="1440" y="100" as="sourcePoint" />
            <mxPoint x="1520" y="100" as="targetPoint" />
            <Array as="points">
              <mxPoint x="1440" y="110" />
              <mxPoint x="1460" y="110" />
              <mxPoint x="1500" y="110" />
              <mxPoint x="1520" y="110" />
            </Array>
          </mxGeometry>
        </mxCell>
        <mxCell id="8gEPXH_LTYy4HOlQ8OhR-302" value="" style="curved=1;endArrow=none;html=1;rounded=0;endFill=0;fillColor=#d5e8d4;strokeColor=#82b366;dashed=1;dashPattern=1 1;" edge="1" parent="8gEPXH_LTYy4HOlQ8OhR-413">
          <mxGeometry width="50" height="50" relative="1" as="geometry">
            <mxPoint x="1360" y="100" as="sourcePoint" />
            <mxPoint x="1440" y="100" as="targetPoint" />
            <Array as="points">
              <mxPoint x="1360" y="110" />
              <mxPoint x="1380" y="110" />
              <mxPoint x="1420" y="110" />
              <mxPoint x="1440" y="110" />
            </Array>
          </mxGeometry>
        </mxCell>
        <mxCell id="8gEPXH_LTYy4HOlQ8OhR-292" value="" style="curved=1;endArrow=none;html=1;rounded=0;endFill=0;fillColor=#d5e8d4;strokeColor=#82b366;dashed=1;dashPattern=1 1;" edge="1" parent="8gEPXH_LTYy4HOlQ8OhR-413">
          <mxGeometry width="50" height="50" relative="1" as="geometry">
            <mxPoint x="1280" y="100" as="sourcePoint" />
            <mxPoint x="1360" y="100" as="targetPoint" />
            <Array as="points">
              <mxPoint x="1280" y="110" />
              <mxPoint x="1300" y="110" />
              <mxPoint x="1340" y="110" />
              <mxPoint x="1360" y="110" />
            </Array>
          </mxGeometry>
        </mxCell>
        <mxCell id="8gEPXH_LTYy4HOlQ8OhR-250" value="" style="curved=1;endArrow=none;html=1;rounded=0;endFill=0;fillColor=#d5e8d4;strokeColor=#82b366;dashed=1;dashPattern=1 1;" edge="1" parent="8gEPXH_LTYy4HOlQ8OhR-413">
          <mxGeometry width="50" height="50" relative="1" as="geometry">
            <mxPoint x="1120" y="100" as="sourcePoint" />
            <mxPoint x="1280" y="100" as="targetPoint" />
            <Array as="points">
              <mxPoint x="1120" y="110" />
              <mxPoint x="1140" y="110" />
              <mxPoint x="1260" y="110" />
              <mxPoint x="1280" y="110" />
            </Array>
          </mxGeometry>
        </mxCell>
        <mxCell id="8gEPXH_LTYy4HOlQ8OhR-383" value="" style="endArrow=openThin;html=1;rounded=0;endFill=0;exitX=0;exitY=0.5;exitDx=0;exitDy=0;strokeWidth=1;" edge="1" parent="1" source="8gEPXH_LTYy4HOlQ8OhR-387">
          <mxGeometry width="50" height="50" relative="1" as="geometry">
            <mxPoint x="280" y="415" as="sourcePoint" />
            <mxPoint x="305" y="430" as="targetPoint" />
          </mxGeometry>
        </mxCell>
        <mxCell id="8gEPXH_LTYy4HOlQ8OhR-271" style="edgeStyle=orthogonalEdgeStyle;rounded=0;orthogonalLoop=1;jettySize=auto;html=1;exitX=0.5;exitY=0;exitDx=0;exitDy=0;fillColor=#d5e8d4;strokeColor=#82b366;dashed=1;dashPattern=1 2;endSize=4;endArrow=openThin;endFill=0;" edge="1" parent="1" source="8gEPXH_LTYy4HOlQ8OhR-265">
          <mxGeometry relative="1" as="geometry">
            <mxPoint x="250" y="300" as="targetPoint" />
            <Array as="points">
              <mxPoint x="305" y="300" />
            </Array>
          </mxGeometry>
        </mxCell>
        <mxCell id="8gEPXH_LTYy4HOlQ8OhR-1" value="TrustUpdates" style="text;html=1;align=right;verticalAlign=middle;whiteSpace=wrap;rounded=0;fontSize=16;fontColor=#000000;fontStyle=1" vertex="1" parent="1">
          <mxGeometry y="170" width="120" height="20" as="geometry" />
        </mxCell>
        <mxCell id="8gEPXH_LTYy4HOlQ8OhR-4" value="" style="ellipse;whiteSpace=wrap;html=1;fillColor=#e1d5e7;strokeColor=#9673a6;" vertex="1" parent="1">
          <mxGeometry x="180" y="170" width="10" height="20" as="geometry" />
        </mxCell>
        <mxCell id="8gEPXH_LTYy4HOlQ8OhR-5" value="" style="ellipse;whiteSpace=wrap;html=1;fillColor=#e1d5e7;strokeColor=#9673a6;" vertex="1" parent="1">
          <mxGeometry x="190" y="170" width="10" height="20" as="geometry" />
        </mxCell>
        <mxCell id="8gEPXH_LTYy4HOlQ8OhR-6" value="" style="ellipse;whiteSpace=wrap;html=1;fillColor=#e1d5e7;strokeColor=#9673a6;" vertex="1" parent="1">
          <mxGeometry x="200" y="170" width="10" height="20" as="geometry" />
        </mxCell>
        <mxCell id="8gEPXH_LTYy4HOlQ8OhR-7" value="" style="ellipse;whiteSpace=wrap;html=1;fillColor=#e1d5e7;strokeColor=#9673a6;" vertex="1" parent="1">
          <mxGeometry x="250" y="170" width="10" height="20" as="geometry" />
        </mxCell>
        <mxCell id="8gEPXH_LTYy4HOlQ8OhR-8" value="" style="ellipse;whiteSpace=wrap;html=1;fillColor=#e1d5e7;strokeColor=#9673a6;" vertex="1" parent="1">
          <mxGeometry x="290" y="170" width="10" height="20" as="geometry" />
        </mxCell>
        <mxCell id="8gEPXH_LTYy4HOlQ8OhR-9" value="" style="ellipse;whiteSpace=wrap;html=1;fillColor=#e1d5e7;strokeColor=#9673a6;" vertex="1" parent="1">
          <mxGeometry x="300" y="170" width="10" height="20" as="geometry" />
        </mxCell>
        <mxCell id="8gEPXH_LTYy4HOlQ8OhR-10" value="" style="ellipse;whiteSpace=wrap;html=1;fillColor=#e1d5e7;strokeColor=#9673a6;" vertex="1" parent="1">
          <mxGeometry x="380" y="170" width="10" height="20" as="geometry" />
        </mxCell>
        <mxCell id="8gEPXH_LTYy4HOlQ8OhR-11" value="" style="ellipse;whiteSpace=wrap;html=1;fillColor=#e1d5e7;strokeColor=#9673a6;" vertex="1" parent="1">
          <mxGeometry x="410" y="170" width="10" height="20" as="geometry" />
        </mxCell>
        <mxCell id="8gEPXH_LTYy4HOlQ8OhR-12" value="" style="ellipse;whiteSpace=wrap;html=1;fillColor=#e1d5e7;strokeColor=#9673a6;" vertex="1" parent="1">
          <mxGeometry x="420" y="170" width="10" height="20" as="geometry" />
        </mxCell>
        <mxCell id="8gEPXH_LTYy4HOlQ8OhR-13" value="" style="ellipse;whiteSpace=wrap;html=1;fillColor=#e1d5e7;strokeColor=#9673a6;" vertex="1" parent="1">
          <mxGeometry x="490" y="170" width="10" height="20" as="geometry" />
        </mxCell>
        <mxCell id="8gEPXH_LTYy4HOlQ8OhR-14" value="" style="ellipse;whiteSpace=wrap;html=1;fillColor=#e1d5e7;strokeColor=#9673a6;" vertex="1" parent="1">
          <mxGeometry x="470" y="170" width="10" height="20" as="geometry" />
        </mxCell>
        <mxCell id="8gEPXH_LTYy4HOlQ8OhR-15" value="" style="ellipse;whiteSpace=wrap;html=1;fillColor=#e1d5e7;strokeColor=#9673a6;" vertex="1" parent="1">
          <mxGeometry x="460" y="170" width="10" height="20" as="geometry" />
        </mxCell>
        <mxCell id="8gEPXH_LTYy4HOlQ8OhR-17" value="" style="ellipse;whiteSpace=wrap;html=1;fillColor=#e1d5e7;strokeColor=#9673a6;" vertex="1" parent="1">
          <mxGeometry x="670" y="170" width="10" height="20" as="geometry" />
        </mxCell>
        <mxCell id="8gEPXH_LTYy4HOlQ8OhR-18" value="" style="ellipse;whiteSpace=wrap;html=1;fillColor=#e1d5e7;strokeColor=#9673a6;" vertex="1" parent="1">
          <mxGeometry x="700" y="170" width="10" height="20" as="geometry" />
        </mxCell>
        <mxCell id="8gEPXH_LTYy4HOlQ8OhR-19" style="edgeStyle=none;curved=1;rounded=0;orthogonalLoop=1;jettySize=auto;html=1;exitX=0.5;exitY=0;exitDx=0;exitDy=0;fontSize=12;startSize=8;endSize=8;" edge="1" parent="1" source="8gEPXH_LTYy4HOlQ8OhR-1" target="8gEPXH_LTYy4HOlQ8OhR-1">
          <mxGeometry relative="1" as="geometry" />
        </mxCell>
        <mxCell id="8gEPXH_LTYy4HOlQ8OhR-20" value="" style="ellipse;whiteSpace=wrap;html=1;fillColor=#e1d5e7;strokeColor=#9673a6;" vertex="1" parent="1">
          <mxGeometry x="710" y="170" width="10" height="20" as="geometry" />
        </mxCell>
        <mxCell id="8gEPXH_LTYy4HOlQ8OhR-21" value="" style="ellipse;whiteSpace=wrap;html=1;fillColor=#e1d5e7;strokeColor=#9673a6;" vertex="1" parent="1">
          <mxGeometry x="740" y="170" width="10" height="20" as="geometry" />
        </mxCell>
        <mxCell id="8gEPXH_LTYy4HOlQ8OhR-22" value="" style="ellipse;whiteSpace=wrap;html=1;fillColor=#e1d5e7;strokeColor=#9673a6;" vertex="1" parent="1">
          <mxGeometry x="780" y="170" width="10" height="20" as="geometry" />
        </mxCell>
        <mxCell id="8gEPXH_LTYy4HOlQ8OhR-23" value="TrustCommits&amp;nbsp;" style="text;html=1;align=right;verticalAlign=middle;whiteSpace=wrap;rounded=0;fontSize=16;fontStyle=1" vertex="1" parent="1">
          <mxGeometry y="290" width="120" height="20" as="geometry" />
        </mxCell>
        <mxCell id="8gEPXH_LTYy4HOlQ8OhR-27" value="" style="ellipse;whiteSpace=wrap;html=1;fillColor=#d5e8d4;strokeColor=#82b366;" vertex="1" parent="1">
          <mxGeometry x="240" y="290" width="10" height="20" as="geometry" />
        </mxCell>
        <mxCell id="8gEPXH_LTYy4HOlQ8OhR-28" value="" style="ellipse;whiteSpace=wrap;html=1;fillColor=#d5e8d4;strokeColor=#82b366;" vertex="1" parent="1">
          <mxGeometry x="320" y="290" width="10" height="20" as="geometry" />
        </mxCell>
        <mxCell id="8gEPXH_LTYy4HOlQ8OhR-31" value="" style="ellipse;whiteSpace=wrap;html=1;fillColor=#d5e8d4;strokeColor=#82b366;" vertex="1" parent="1">
          <mxGeometry x="400" y="290" width="10" height="20" as="geometry" />
        </mxCell>
        <mxCell id="8gEPXH_LTYy4HOlQ8OhR-32" value="" style="ellipse;whiteSpace=wrap;html=1;fillColor=#d5e8d4;strokeColor=#82b366;" vertex="1" parent="1">
          <mxGeometry x="480" y="290" width="10" height="20" as="geometry" />
        </mxCell>
        <mxCell id="8gEPXH_LTYy4HOlQ8OhR-86" value="" style="curved=1;endArrow=none;html=1;rounded=0;endFill=0;fillColor=#d5e8d4;strokeColor=#82B366;dashed=1;dashPattern=1 1;" edge="1" parent="1">
          <mxGeometry width="50" height="50" relative="1" as="geometry">
            <mxPoint x="160" y="200" as="sourcePoint" />
            <mxPoint x="240" y="200" as="targetPoint" />
            <Array as="points">
              <mxPoint x="160" y="210" />
              <mxPoint x="180" y="210" />
              <mxPoint x="220" y="210" />
              <mxPoint x="240" y="210" />
            </Array>
          </mxGeometry>
        </mxCell>
        <mxCell id="8gEPXH_LTYy4HOlQ8OhR-109" value="" style="endArrow=openThin;html=1;rounded=0;fillColor=#d5e8d4;strokeColor=#82b366;endSize=4;endFill=0;dashed=1;dashPattern=1 1;" edge="1" parent="1">
          <mxGeometry width="50" height="50" relative="1" as="geometry">
            <mxPoint x="230" y="210" as="sourcePoint" />
            <mxPoint x="245" y="290" as="targetPoint" />
          </mxGeometry>
        </mxCell>
        <mxCell id="8gEPXH_LTYy4HOlQ8OhR-114" value="" style="endArrow=openThin;html=1;rounded=0;fillColor=#d5e8d4;strokeColor=#82b366;entryX=0.5;entryY=0;entryDx=0;entryDy=0;endSize=4;endFill=0;dashed=1;dashPattern=1 1;" edge="1" parent="1" target="8gEPXH_LTYy4HOlQ8OhR-28">
          <mxGeometry width="50" height="50" relative="1" as="geometry">
            <mxPoint x="310" y="210" as="sourcePoint" />
            <mxPoint x="325" y="270" as="targetPoint" />
          </mxGeometry>
        </mxCell>
        <mxCell id="8gEPXH_LTYy4HOlQ8OhR-117" value="" style="endArrow=openThin;html=1;rounded=0;fillColor=#d5e8d4;strokeColor=#82b366;entryX=0.5;entryY=0;entryDx=0;entryDy=0;endSize=4;endFill=0;dashed=1;dashPattern=1 1;" edge="1" parent="1" target="8gEPXH_LTYy4HOlQ8OhR-31">
          <mxGeometry width="50" height="50" relative="1" as="geometry">
            <mxPoint x="390" y="210" as="sourcePoint" />
            <mxPoint x="405" y="270" as="targetPoint" />
          </mxGeometry>
        </mxCell>
        <mxCell id="8gEPXH_LTYy4HOlQ8OhR-119" value="" style="endArrow=openThin;html=1;rounded=0;fillColor=#d5e8d4;strokeColor=#82b366;entryX=0.5;entryY=0;entryDx=0;entryDy=0;endSize=4;endFill=0;dashed=1;dashPattern=1 1;" edge="1" parent="1" target="8gEPXH_LTYy4HOlQ8OhR-32">
          <mxGeometry width="50" height="50" relative="1" as="geometry">
            <mxPoint x="470" y="210" as="sourcePoint" />
            <mxPoint x="485" y="270" as="targetPoint" />
          </mxGeometry>
        </mxCell>
        <mxCell id="8gEPXH_LTYy4HOlQ8OhR-123" value="" style="ellipse;whiteSpace=wrap;html=1;fillColor=none;strokeColor=#B3B3B3;dashed=1;dashPattern=1 1;fontColor=#333333;" vertex="1" parent="1">
          <mxGeometry x="640" y="290" width="10" height="20" as="geometry" />
        </mxCell>
        <mxCell id="8gEPXH_LTYy4HOlQ8OhR-124" value="" style="ellipse;whiteSpace=wrap;html=1;fillColor=#d5e8d4;strokeColor=#82b366;" vertex="1" parent="1">
          <mxGeometry x="720" y="290" width="10" height="20" as="geometry" />
        </mxCell>
        <mxCell id="8gEPXH_LTYy4HOlQ8OhR-127" value="" style="ellipse;whiteSpace=wrap;html=1;fillColor=#d5e8d4;strokeColor=#82b366;" vertex="1" parent="1">
          <mxGeometry x="800" y="290" width="10" height="20" as="geometry" />
        </mxCell>
        <mxCell id="8gEPXH_LTYy4HOlQ8OhR-131" value="" style="endArrow=openThin;html=1;rounded=0;fillColor=#d5e8d4;strokeColor=#82b366;entryX=0.5;entryY=0;entryDx=0;entryDy=0;endSize=4;endFill=0;dashed=1;dashPattern=1 1;" edge="1" target="8gEPXH_LTYy4HOlQ8OhR-124" parent="1">
          <mxGeometry width="50" height="50" relative="1" as="geometry">
            <mxPoint x="710" y="210" as="sourcePoint" />
            <mxPoint x="725" y="270" as="targetPoint" />
          </mxGeometry>
        </mxCell>
        <mxCell id="8gEPXH_LTYy4HOlQ8OhR-133" value="" style="endArrow=openThin;html=1;rounded=0;fillColor=#d5e8d4;strokeColor=#82b366;entryX=0.5;entryY=0;entryDx=0;entryDy=0;endSize=4;endFill=0;dashed=1;dashPattern=1 1;" edge="1" target="8gEPXH_LTYy4HOlQ8OhR-127" parent="1">
          <mxGeometry width="50" height="50" relative="1" as="geometry">
            <mxPoint x="790" y="210" as="sourcePoint" />
            <mxPoint x="805" y="270" as="targetPoint" />
          </mxGeometry>
        </mxCell>
        <mxCell id="8gEPXH_LTYy4HOlQ8OhR-135" value="" style="ellipse;whiteSpace=wrap;html=1;fillColor=#d5e8d4;strokeColor=#82b366;" vertex="1" parent="1">
          <mxGeometry x="880" y="290" width="10" height="20" as="geometry" />
        </mxCell>
        <mxCell id="8gEPXH_LTYy4HOlQ8OhR-138" value="" style="ellipse;whiteSpace=wrap;html=1;fillColor=#d5e8d4;strokeColor=#82b366;" vertex="1" parent="1">
          <mxGeometry x="960" y="290" width="10" height="20" as="geometry" />
        </mxCell>
        <mxCell id="8gEPXH_LTYy4HOlQ8OhR-139" value="" style="ellipse;whiteSpace=wrap;html=1;fillColor=#d5e8d4;strokeColor=#82b366;" vertex="1" parent="1">
          <mxGeometry x="1040" y="290" width="10" height="20" as="geometry" />
        </mxCell>
        <mxCell id="8gEPXH_LTYy4HOlQ8OhR-142" value="" style="ellipse;whiteSpace=wrap;html=1;fillColor=#d5e8d4;strokeColor=#82b366;" vertex="1" parent="1">
          <mxGeometry x="1120" y="290" width="10" height="20" as="geometry" />
        </mxCell>
        <mxCell id="8gEPXH_LTYy4HOlQ8OhR-143" value="" style="ellipse;whiteSpace=wrap;html=1;fillColor=#d5e8d4;strokeColor=#82b366;" vertex="1" parent="1">
          <mxGeometry x="1200" y="290" width="10" height="20" as="geometry" />
        </mxCell>
        <mxCell id="8gEPXH_LTYy4HOlQ8OhR-146" value="" style="ellipse;whiteSpace=wrap;html=1;fillColor=#d5e8d4;strokeColor=#82b366;" vertex="1" parent="1">
          <mxGeometry x="1280" y="290" width="10" height="20" as="geometry" />
        </mxCell>
        <mxCell id="8gEPXH_LTYy4HOlQ8OhR-166" value="" style="endArrow=openThin;html=1;rounded=0;fillColor=#d5e8d4;strokeColor=#82b366;entryX=0.5;entryY=0;entryDx=0;entryDy=0;endSize=4;endFill=0;dashed=1;dashPattern=1 1;" edge="1" target="8gEPXH_LTYy4HOlQ8OhR-135" parent="1">
          <mxGeometry width="50" height="50" relative="1" as="geometry">
            <mxPoint x="870" y="210" as="sourcePoint" />
            <mxPoint x="1320" y="290" as="targetPoint" />
          </mxGeometry>
        </mxCell>
        <mxCell id="8gEPXH_LTYy4HOlQ8OhR-168" value="" style="endArrow=openThin;html=1;rounded=0;fillColor=#d5e8d4;strokeColor=#82b366;entryX=0.5;entryY=0;entryDx=0;entryDy=0;endSize=4;endFill=0;dashed=1;dashPattern=1 1;" edge="1" target="8gEPXH_LTYy4HOlQ8OhR-138" parent="1">
          <mxGeometry width="50" height="50" relative="1" as="geometry">
            <mxPoint x="950" y="210" as="sourcePoint" />
            <mxPoint x="935" y="280" as="targetPoint" />
          </mxGeometry>
        </mxCell>
        <mxCell id="8gEPXH_LTYy4HOlQ8OhR-170" value="" style="endArrow=openThin;html=1;rounded=0;fillColor=#d5e8d4;strokeColor=#82b366;entryX=0.5;entryY=0;entryDx=0;entryDy=0;endSize=4;endFill=0;dashed=1;dashPattern=1 1;" edge="1" target="8gEPXH_LTYy4HOlQ8OhR-139" parent="1">
          <mxGeometry width="50" height="50" relative="1" as="geometry">
            <mxPoint x="1030" y="210" as="sourcePoint" />
            <mxPoint x="1045" y="270" as="targetPoint" />
          </mxGeometry>
        </mxCell>
        <mxCell id="8gEPXH_LTYy4HOlQ8OhR-172" value="" style="endArrow=openThin;html=1;rounded=0;fillColor=#d5e8d4;strokeColor=#82b366;entryX=0.5;entryY=0;entryDx=0;entryDy=0;endSize=4;endFill=0;dashed=1;dashPattern=1 1;" edge="1" target="8gEPXH_LTYy4HOlQ8OhR-142" parent="1">
          <mxGeometry width="50" height="50" relative="1" as="geometry">
            <mxPoint x="1110" y="210" as="sourcePoint" />
            <mxPoint x="1125" y="270" as="targetPoint" />
          </mxGeometry>
        </mxCell>
        <mxCell id="8gEPXH_LTYy4HOlQ8OhR-174" value="" style="endArrow=openThin;html=1;rounded=0;fillColor=#d5e8d4;strokeColor=#82b366;entryX=0.5;entryY=0;entryDx=0;entryDy=0;endSize=4;endFill=0;dashed=1;dashPattern=1 1;" edge="1" target="8gEPXH_LTYy4HOlQ8OhR-143" parent="1">
          <mxGeometry width="50" height="50" relative="1" as="geometry">
            <mxPoint x="1190" y="210" as="sourcePoint" />
            <mxPoint x="1205" y="270" as="targetPoint" />
          </mxGeometry>
        </mxCell>
        <mxCell id="8gEPXH_LTYy4HOlQ8OhR-176" value="" style="endArrow=openThin;html=1;rounded=0;fillColor=#d5e8d4;strokeColor=#82b366;entryX=0.5;entryY=0;entryDx=0;entryDy=0;endSize=4;endFill=0;dashed=1;dashPattern=1 1;" edge="1" target="8gEPXH_LTYy4HOlQ8OhR-146" parent="1">
          <mxGeometry width="50" height="50" relative="1" as="geometry">
            <mxPoint x="1270" y="210" as="sourcePoint" />
            <mxPoint x="1285" y="270" as="targetPoint" />
          </mxGeometry>
        </mxCell>
        <mxCell id="8gEPXH_LTYy4HOlQ8OhR-178" value="" style="ellipse;whiteSpace=wrap;html=1;fillColor=none;strokeColor=#B3B3B3;dashed=1;dashPattern=1 1;" vertex="1" parent="1">
          <mxGeometry x="1360" y="290" width="10" height="20" as="geometry" />
        </mxCell>
        <mxCell id="8gEPXH_LTYy4HOlQ8OhR-179" value="" style="ellipse;whiteSpace=wrap;html=1;fillColor=#d5e8d4;strokeColor=#82b366;" vertex="1" parent="1">
          <mxGeometry x="1440" y="290" width="10" height="20" as="geometry" />
        </mxCell>
        <mxCell id="8gEPXH_LTYy4HOlQ8OhR-182" value="" style="ellipse;whiteSpace=wrap;html=1;fillColor=#d5e8d4;strokeColor=#82b366;" vertex="1" parent="1">
          <mxGeometry x="1520" y="290" width="10" height="20" as="geometry" />
        </mxCell>
        <mxCell id="8gEPXH_LTYy4HOlQ8OhR-186" value="" style="endArrow=openThin;html=1;rounded=0;fillColor=#d5e8d4;strokeColor=#82b366;entryX=0.5;entryY=0;entryDx=0;entryDy=0;endSize=4;endFill=0;dashed=1;dashPattern=1 1;" edge="1" target="8gEPXH_LTYy4HOlQ8OhR-179" parent="1">
          <mxGeometry width="50" height="50" relative="1" as="geometry">
            <mxPoint x="1430" y="210" as="sourcePoint" />
            <mxPoint x="1445" y="270" as="targetPoint" />
          </mxGeometry>
        </mxCell>
        <mxCell id="8gEPXH_LTYy4HOlQ8OhR-188" value="" style="endArrow=openThin;html=1;rounded=0;fillColor=#d5e8d4;strokeColor=#82b366;entryX=0.5;entryY=0;entryDx=0;entryDy=0;endSize=4;endFill=0;dashed=1;dashPattern=1 1;" edge="1" target="8gEPXH_LTYy4HOlQ8OhR-182" parent="1">
          <mxGeometry width="50" height="50" relative="1" as="geometry">
            <mxPoint x="1510" y="210" as="sourcePoint" />
            <mxPoint x="1525" y="270" as="targetPoint" />
          </mxGeometry>
        </mxCell>
        <mxCell id="8gEPXH_LTYy4HOlQ8OhR-190" value="" style="ellipse;whiteSpace=wrap;html=1;fillColor=#e1d5e7;strokeColor=#9673a6;" vertex="1" parent="1">
          <mxGeometry x="790" y="170" width="10" height="20" as="geometry" />
        </mxCell>
        <mxCell id="8gEPXH_LTYy4HOlQ8OhR-191" value="" style="ellipse;whiteSpace=wrap;html=1;fillColor=#e1d5e7;strokeColor=#9673a6;" vertex="1" parent="1">
          <mxGeometry x="810" y="170" width="10" height="20" as="geometry" />
        </mxCell>
        <mxCell id="8gEPXH_LTYy4HOlQ8OhR-192" value="" style="ellipse;whiteSpace=wrap;html=1;fillColor=#e1d5e7;strokeColor=#9673a6;" vertex="1" parent="1">
          <mxGeometry x="840" y="170" width="10" height="20" as="geometry" />
        </mxCell>
        <mxCell id="8gEPXH_LTYy4HOlQ8OhR-193" value="" style="ellipse;whiteSpace=wrap;html=1;fillColor=#e1d5e7;strokeColor=#9673a6;" vertex="1" parent="1">
          <mxGeometry x="860" y="170" width="10" height="20" as="geometry" />
        </mxCell>
        <mxCell id="8gEPXH_LTYy4HOlQ8OhR-194" value="" style="ellipse;whiteSpace=wrap;html=1;fillColor=#e1d5e7;strokeColor=#9673a6;" vertex="1" parent="1">
          <mxGeometry x="890" y="170" width="10" height="20" as="geometry" />
        </mxCell>
        <mxCell id="8gEPXH_LTYy4HOlQ8OhR-195" value="" style="ellipse;whiteSpace=wrap;html=1;fillColor=#e1d5e7;strokeColor=#9673a6;" vertex="1" parent="1">
          <mxGeometry x="930" y="170" width="10" height="20" as="geometry" />
        </mxCell>
        <mxCell id="8gEPXH_LTYy4HOlQ8OhR-196" value="" style="ellipse;whiteSpace=wrap;html=1;fillColor=#e1d5e7;strokeColor=#9673a6;" vertex="1" parent="1">
          <mxGeometry x="950" y="170" width="10" height="20" as="geometry" />
        </mxCell>
        <mxCell id="8gEPXH_LTYy4HOlQ8OhR-197" value="" style="ellipse;whiteSpace=wrap;html=1;fillColor=#e1d5e7;strokeColor=#9673a6;" vertex="1" parent="1">
          <mxGeometry x="960" y="170" width="10" height="20" as="geometry" />
        </mxCell>
        <mxCell id="8gEPXH_LTYy4HOlQ8OhR-198" value="" style="ellipse;whiteSpace=wrap;html=1;fillColor=#e1d5e7;strokeColor=#9673a6;" vertex="1" parent="1">
          <mxGeometry x="990" y="170" width="10" height="20" as="geometry" />
        </mxCell>
        <mxCell id="8gEPXH_LTYy4HOlQ8OhR-199" value="" style="ellipse;whiteSpace=wrap;html=1;fillColor=#e1d5e7;strokeColor=#9673a6;" vertex="1" parent="1">
          <mxGeometry x="1020" y="170" width="10" height="20" as="geometry" />
        </mxCell>
        <mxCell id="8gEPXH_LTYy4HOlQ8OhR-200" value="" style="ellipse;whiteSpace=wrap;html=1;fillColor=#e1d5e7;strokeColor=#9673a6;" vertex="1" parent="1">
          <mxGeometry x="1040" y="170" width="10" height="20" as="geometry" />
        </mxCell>
        <mxCell id="8gEPXH_LTYy4HOlQ8OhR-201" value="" style="ellipse;whiteSpace=wrap;html=1;fillColor=#e1d5e7;strokeColor=#9673a6;" vertex="1" parent="1">
          <mxGeometry x="1060" y="170" width="10" height="20" as="geometry" />
        </mxCell>
        <mxCell id="8gEPXH_LTYy4HOlQ8OhR-202" value="" style="ellipse;whiteSpace=wrap;html=1;fillColor=#e1d5e7;strokeColor=#9673a6;" vertex="1" parent="1">
          <mxGeometry x="1090" y="170" width="10" height="20" as="geometry" />
        </mxCell>
        <mxCell id="8gEPXH_LTYy4HOlQ8OhR-203" value="" style="ellipse;whiteSpace=wrap;html=1;fillColor=#e1d5e7;strokeColor=#9673a6;" vertex="1" parent="1">
          <mxGeometry x="1100" y="170" width="10" height="20" as="geometry" />
        </mxCell>
        <mxCell id="8gEPXH_LTYy4HOlQ8OhR-204" value="" style="ellipse;whiteSpace=wrap;html=1;fillColor=#e1d5e7;strokeColor=#9673a6;" vertex="1" parent="1">
          <mxGeometry x="1140" y="170" width="10" height="20" as="geometry" />
        </mxCell>
        <mxCell id="8gEPXH_LTYy4HOlQ8OhR-205" value="" style="ellipse;whiteSpace=wrap;html=1;fillColor=#e1d5e7;strokeColor=#9673a6;" vertex="1" parent="1">
          <mxGeometry x="1180" y="170" width="10" height="20" as="geometry" />
        </mxCell>
        <mxCell id="8gEPXH_LTYy4HOlQ8OhR-207" value="" style="ellipse;whiteSpace=wrap;html=1;fillColor=#e1d5e7;strokeColor=#9673a6;" vertex="1" parent="1">
          <mxGeometry x="1225" y="170" width="10" height="20" as="geometry" />
        </mxCell>
        <mxCell id="8gEPXH_LTYy4HOlQ8OhR-208" value="" style="ellipse;whiteSpace=wrap;html=1;fillColor=#e1d5e7;strokeColor=#9673a6;" vertex="1" parent="1">
          <mxGeometry x="1255" y="170" width="10" height="20" as="geometry" />
        </mxCell>
        <mxCell id="8gEPXH_LTYy4HOlQ8OhR-209" value="" style="ellipse;whiteSpace=wrap;html=1;fillColor=#e1d5e7;strokeColor=#9673a6;" vertex="1" parent="1">
          <mxGeometry x="1265" y="170" width="10" height="20" as="geometry" />
        </mxCell>
        <mxCell id="8gEPXH_LTYy4HOlQ8OhR-210" value="" style="ellipse;whiteSpace=wrap;html=1;fillColor=#e1d5e7;strokeColor=#9673a6;" vertex="1" parent="1">
          <mxGeometry x="1400" y="170" width="10" height="20" as="geometry" />
        </mxCell>
        <mxCell id="8gEPXH_LTYy4HOlQ8OhR-211" value="" style="ellipse;whiteSpace=wrap;html=1;fillColor=#e1d5e7;strokeColor=#9673a6;" vertex="1" parent="1">
          <mxGeometry x="1410" y="170" width="10" height="20" as="geometry" />
        </mxCell>
        <mxCell id="8gEPXH_LTYy4HOlQ8OhR-212" value="" style="ellipse;whiteSpace=wrap;html=1;fillColor=#e1d5e7;strokeColor=#9673a6;" vertex="1" parent="1">
          <mxGeometry x="1460" y="170" width="10" height="20" as="geometry" />
        </mxCell>
        <mxCell id="8gEPXH_LTYy4HOlQ8OhR-213" value="" style="ellipse;whiteSpace=wrap;html=1;fillColor=#e1d5e7;strokeColor=#9673a6;" vertex="1" parent="1">
          <mxGeometry x="1480" y="170" width="10" height="20" as="geometry" />
        </mxCell>
        <mxCell id="8gEPXH_LTYy4HOlQ8OhR-215" value="Prefetches &amp;amp;&lt;br&gt;Confirm–Computes" style="text;html=1;align=right;verticalAlign=middle;whiteSpace=wrap;rounded=0;fontSize=16;fontStyle=1" vertex="1" parent="1">
          <mxGeometry x="-40" y="440" width="160" height="40" as="geometry" />
        </mxCell>
        <mxCell id="8gEPXH_LTYy4HOlQ8OhR-273" style="edgeStyle=orthogonalEdgeStyle;rounded=0;orthogonalLoop=1;jettySize=auto;html=1;entryX=1;entryY=0.5;entryDx=0;entryDy=0;exitX=0.5;exitY=0;exitDx=0;exitDy=0;fillColor=#d5e8d4;strokeColor=#82b366;dashed=1;dashPattern=1 2;endSize=4;endArrow=openThin;endFill=0;" edge="1" parent="1" source="8gEPXH_LTYy4HOlQ8OhR-221" target="8gEPXH_LTYy4HOlQ8OhR-260">
          <mxGeometry relative="1" as="geometry">
            <Array as="points">
              <mxPoint x="785" y="300" />
            </Array>
          </mxGeometry>
        </mxCell>
        <mxCell id="8gEPXH_LTYy4HOlQ8OhR-221" value="" style="ellipse;whiteSpace=wrap;html=1;fillColor=#d5e8d4;strokeColor=#82b366;" vertex="1" parent="1">
          <mxGeometry x="780" y="450" width="10" height="20" as="geometry" />
        </mxCell>
        <mxCell id="8gEPXH_LTYy4HOlQ8OhR-243" value="" style="curved=1;endArrow=none;html=1;rounded=0;endFill=0;fillColor=#d5e8d4;strokeColor=#82b366;dashed=1;dashPattern=1 1;" edge="1" parent="1">
          <mxGeometry width="50" height="50" relative="1" as="geometry">
            <mxPoint x="240" y="200" as="sourcePoint" />
            <mxPoint x="320" y="200" as="targetPoint" />
            <Array as="points">
              <mxPoint x="240" y="210" />
              <mxPoint x="260" y="210" />
              <mxPoint x="300" y="210" />
              <mxPoint x="320" y="210" />
            </Array>
          </mxGeometry>
        </mxCell>
        <mxCell id="8gEPXH_LTYy4HOlQ8OhR-245" value="" style="curved=1;endArrow=none;html=1;rounded=0;endFill=0;fillColor=#d5e8d4;strokeColor=#82b366;dashed=1;dashPattern=1 1;" edge="1" parent="1">
          <mxGeometry width="50" height="50" relative="1" as="geometry">
            <mxPoint x="320" y="200" as="sourcePoint" />
            <mxPoint x="400" y="200" as="targetPoint" />
            <Array as="points">
              <mxPoint x="320" y="210" />
              <mxPoint x="340" y="210" />
              <mxPoint x="380" y="210" />
              <mxPoint x="400" y="210" />
            </Array>
          </mxGeometry>
        </mxCell>
        <mxCell id="8gEPXH_LTYy4HOlQ8OhR-246" value="" style="curved=1;endArrow=none;html=1;rounded=0;endFill=0;fillColor=#d5e8d4;strokeColor=#82b366;dashed=1;dashPattern=1 1;" edge="1" parent="1">
          <mxGeometry width="50" height="50" relative="1" as="geometry">
            <mxPoint x="760" y="200" as="sourcePoint" />
            <mxPoint x="800" y="200" as="targetPoint" />
            <Array as="points">
              <mxPoint x="760" y="210" />
              <mxPoint x="780" y="210" />
              <mxPoint x="800" y="210" />
            </Array>
          </mxGeometry>
        </mxCell>
        <mxCell id="8gEPXH_LTYy4HOlQ8OhR-247" value="" style="curved=1;endArrow=none;html=1;rounded=0;endFill=0;fillColor=#d5e8d4;strokeColor=#82b366;dashed=1;dashPattern=1 1;" edge="1" parent="1">
          <mxGeometry width="50" height="50" relative="1" as="geometry">
            <mxPoint x="560" y="200" as="sourcePoint" />
            <mxPoint x="720" y="200" as="targetPoint" />
            <Array as="points">
              <mxPoint x="560" y="210" />
              <mxPoint x="580" y="210" />
              <mxPoint x="700" y="210" />
              <mxPoint x="720" y="210" />
            </Array>
          </mxGeometry>
        </mxCell>
        <mxCell id="8gEPXH_LTYy4HOlQ8OhR-248" value="" style="curved=1;endArrow=none;html=1;rounded=0;endFill=0;fillColor=#d5e8d4;strokeColor=#82b366;dashed=1;dashPattern=1 1;" edge="1" parent="1">
          <mxGeometry width="50" height="50" relative="1" as="geometry">
            <mxPoint x="480" y="200" as="sourcePoint" />
            <mxPoint x="560" y="200" as="targetPoint" />
            <Array as="points">
              <mxPoint x="480" y="210" />
              <mxPoint x="500" y="210" />
              <mxPoint x="540" y="210" />
              <mxPoint x="560" y="210" />
            </Array>
          </mxGeometry>
        </mxCell>
        <mxCell id="8gEPXH_LTYy4HOlQ8OhR-252" value="" style="curved=1;endArrow=none;html=1;rounded=0;endFill=0;fillColor=#d5e8d4;strokeColor=#82b366;dashed=1;dashPattern=1 1;" edge="1" parent="1">
          <mxGeometry width="50" height="50" relative="1" as="geometry">
            <mxPoint x="1120" y="200" as="sourcePoint" />
            <mxPoint x="1200" y="200" as="targetPoint" />
            <Array as="points">
              <mxPoint x="1120" y="210" />
              <mxPoint x="1140" y="210" />
              <mxPoint x="1180" y="210" />
              <mxPoint x="1200" y="210" />
            </Array>
          </mxGeometry>
        </mxCell>
        <mxCell id="8gEPXH_LTYy4HOlQ8OhR-253" value="" style="curved=1;endArrow=none;html=1;rounded=0;endFill=0;fillColor=#d5e8d4;strokeColor=#82b366;dashed=1;dashPattern=1 1;" edge="1" parent="1">
          <mxGeometry width="50" height="50" relative="1" as="geometry">
            <mxPoint x="1200" y="200" as="sourcePoint" />
            <mxPoint x="1280" y="200" as="targetPoint" />
            <Array as="points">
              <mxPoint x="1200" y="210" />
              <mxPoint x="1220" y="210" />
              <mxPoint x="1260" y="210" />
              <mxPoint x="1280" y="210" />
            </Array>
          </mxGeometry>
        </mxCell>
        <mxCell id="8gEPXH_LTYy4HOlQ8OhR-254" value="" style="curved=1;endArrow=none;html=1;rounded=0;endFill=0;fillColor=#d5e8d4;strokeColor=#82b366;dashed=1;dashPattern=1 1;" edge="1" parent="1">
          <mxGeometry width="50" height="50" relative="1" as="geometry">
            <mxPoint x="800" y="200" as="sourcePoint" />
            <mxPoint x="880" y="200" as="targetPoint" />
            <Array as="points">
              <mxPoint x="800" y="210" />
              <mxPoint x="820" y="210" />
              <mxPoint x="860" y="210" />
              <mxPoint x="880" y="210" />
            </Array>
          </mxGeometry>
        </mxCell>
        <mxCell id="8gEPXH_LTYy4HOlQ8OhR-255" value="" style="curved=1;endArrow=none;html=1;rounded=0;endFill=0;fillColor=#d5e8d4;strokeColor=#82b366;dashed=1;dashPattern=1 1;" edge="1" parent="1">
          <mxGeometry width="50" height="50" relative="1" as="geometry">
            <mxPoint x="880" y="200" as="sourcePoint" />
            <mxPoint x="960" y="200" as="targetPoint" />
            <Array as="points">
              <mxPoint x="880" y="210" />
              <mxPoint x="900" y="210" />
              <mxPoint x="940" y="210" />
              <mxPoint x="960" y="210" />
            </Array>
          </mxGeometry>
        </mxCell>
        <mxCell id="8gEPXH_LTYy4HOlQ8OhR-256" value="" style="curved=1;endArrow=none;html=1;rounded=0;endFill=0;fillColor=#d5e8d4;strokeColor=#82b366;dashed=1;dashPattern=1 1;" edge="1" parent="1">
          <mxGeometry width="50" height="50" relative="1" as="geometry">
            <mxPoint x="1040" y="200" as="sourcePoint" />
            <mxPoint x="1120" y="200" as="targetPoint" />
            <Array as="points">
              <mxPoint x="1040" y="210" />
              <mxPoint x="1060" y="210" />
              <mxPoint x="1100" y="210" />
              <mxPoint x="1120" y="210" />
            </Array>
          </mxGeometry>
        </mxCell>
        <mxCell id="8gEPXH_LTYy4HOlQ8OhR-257" value="" style="curved=1;endArrow=none;html=1;rounded=0;endFill=0;fillColor=#d5e8d4;strokeColor=#82b366;dashed=1;dashPattern=1 1;" edge="1" parent="1">
          <mxGeometry width="50" height="50" relative="1" as="geometry">
            <mxPoint x="960" y="200" as="sourcePoint" />
            <mxPoint x="1040" y="200" as="targetPoint" />
            <Array as="points">
              <mxPoint x="960" y="210" />
              <mxPoint x="980" y="210" />
              <mxPoint x="1020" y="210" />
              <mxPoint x="1040" y="210" />
            </Array>
          </mxGeometry>
        </mxCell>
        <mxCell id="8gEPXH_LTYy4HOlQ8OhR-259" value="" style="ellipse;whiteSpace=wrap;html=1;fillColor=#d5e8d4;strokeColor=#82b366;" vertex="1" parent="1">
          <mxGeometry x="560" y="290" width="10" height="20" as="geometry" />
        </mxCell>
        <mxCell id="8gEPXH_LTYy4HOlQ8OhR-260" value="" style="ellipse;whiteSpace=wrap;html=1;fillColor=#fff2cc;strokeColor=#d6b656;" vertex="1" parent="1">
          <mxGeometry x="760" y="290" width="10" height="20" as="geometry" />
        </mxCell>
        <mxCell id="8gEPXH_LTYy4HOlQ8OhR-261" value="" style="curved=1;endArrow=none;html=1;rounded=0;endFill=0;fillColor=#fff2cc;strokeColor=#d6b656;dashed=1;dashPattern=1 1;" edge="1" parent="1">
          <mxGeometry width="50" height="50" relative="1" as="geometry">
            <mxPoint x="720" y="200" as="sourcePoint" />
            <mxPoint x="760" y="200" as="targetPoint" />
            <Array as="points">
              <mxPoint x="720" y="210" />
              <mxPoint x="740" y="210" />
              <mxPoint x="760" y="210" />
            </Array>
          </mxGeometry>
        </mxCell>
        <mxCell id="8gEPXH_LTYy4HOlQ8OhR-262" value="" style="endArrow=openThin;html=1;rounded=0;fillColor=#fff2cc;strokeColor=#d6b656;endSize=4;endFill=0;dashed=1;dashPattern=1 1;" edge="1" parent="1">
          <mxGeometry width="50" height="50" relative="1" as="geometry">
            <mxPoint x="750" y="210" as="sourcePoint" />
            <mxPoint x="765" y="290" as="targetPoint" />
          </mxGeometry>
        </mxCell>
        <mxCell id="8gEPXH_LTYy4HOlQ8OhR-270" style="edgeStyle=orthogonalEdgeStyle;rounded=0;orthogonalLoop=1;jettySize=auto;html=1;entryX=1;entryY=0.5;entryDx=0;entryDy=0;exitX=0.5;exitY=0;exitDx=0;exitDy=0;fillColor=#d5e8d4;strokeColor=#82b366;dashed=1;dashPattern=1 2;endSize=4;endArrow=openThin;endFill=0;" edge="1" parent="1" source="8gEPXH_LTYy4HOlQ8OhR-263" target="8gEPXH_LTYy4HOlQ8OhR-27">
          <mxGeometry relative="1" as="geometry">
            <Array as="points">
              <mxPoint x="265" y="300" />
            </Array>
          </mxGeometry>
        </mxCell>
        <mxCell id="8gEPXH_LTYy4HOlQ8OhR-272" style="edgeStyle=orthogonalEdgeStyle;rounded=0;orthogonalLoop=1;jettySize=auto;html=1;entryX=1;entryY=0.5;entryDx=0;entryDy=0;exitX=0.5;exitY=0;exitDx=0;exitDy=0;fillColor=#d5e8d4;strokeColor=#82b366;dashed=1;dashPattern=1 2;endSize=4;endArrow=openThin;endFill=0;elbow=vertical;" edge="1" parent="1" source="8gEPXH_LTYy4HOlQ8OhR-264" target="8gEPXH_LTYy4HOlQ8OhR-124">
          <mxGeometry relative="1" as="geometry">
            <Array as="points">
              <mxPoint x="745" y="300" />
            </Array>
          </mxGeometry>
        </mxCell>
        <mxCell id="8gEPXH_LTYy4HOlQ8OhR-264" value="" style="ellipse;whiteSpace=wrap;html=1;fillColor=none;strokeColor=#82b366;" vertex="1" parent="1">
          <mxGeometry x="740" y="450" width="10" height="20" as="geometry" />
        </mxCell>
        <mxCell id="8gEPXH_LTYy4HOlQ8OhR-281" style="edgeStyle=orthogonalEdgeStyle;rounded=0;orthogonalLoop=1;jettySize=auto;html=1;entryX=1;entryY=0.5;entryDx=0;entryDy=0;exitX=0.5;exitY=0;exitDx=0;exitDy=0;fillColor=#d5e8d4;strokeColor=#82b366;dashed=1;dashPattern=1 2;" edge="1" parent="1" source="8gEPXH_LTYy4HOlQ8OhR-266" target="8gEPXH_LTYy4HOlQ8OhR-143">
          <mxGeometry relative="1" as="geometry" />
        </mxCell>
        <mxCell id="8gEPXH_LTYy4HOlQ8OhR-266" value="" style="ellipse;whiteSpace=wrap;html=1;fillColor=#d5e8d4;strokeColor=#82b366;" vertex="1" parent="1">
          <mxGeometry x="1260" y="450" width="10" height="20" as="geometry" />
        </mxCell>
        <mxCell id="8gEPXH_LTYy4HOlQ8OhR-280" style="edgeStyle=orthogonalEdgeStyle;rounded=0;orthogonalLoop=1;jettySize=auto;html=1;entryX=1;entryY=0.5;entryDx=0;entryDy=0;endSize=4;endArrow=openThin;endFill=0;dashed=1;dashPattern=1 2;fillColor=#d5e8d4;strokeColor=#82b366;exitX=0.5;exitY=0;exitDx=0;exitDy=0;" edge="1" parent="1" source="8gEPXH_LTYy4HOlQ8OhR-267" target="8gEPXH_LTYy4HOlQ8OhR-143">
          <mxGeometry relative="1" as="geometry">
            <Array as="points">
              <mxPoint x="1225" y="300" />
            </Array>
          </mxGeometry>
        </mxCell>
        <mxCell id="8gEPXH_LTYy4HOlQ8OhR-267" value="" style="ellipse;whiteSpace=wrap;html=1;fillColor=none;strokeColor=#82b366;" vertex="1" parent="1">
          <mxGeometry x="1220" y="450" width="10" height="20" as="geometry" />
        </mxCell>
        <mxCell id="8gEPXH_LTYy4HOlQ8OhR-269" value="" style="endArrow=openThin;html=1;rounded=0;fillColor=#d5e8d4;strokeColor=#82b366;entryX=0.5;entryY=0;entryDx=0;entryDy=0;endSize=4;endFill=0;dashed=1;dashPattern=1 1;" edge="1" parent="1" target="8gEPXH_LTYy4HOlQ8OhR-259">
          <mxGeometry width="50" height="50" relative="1" as="geometry">
            <mxPoint x="550" y="210" as="sourcePoint" />
            <mxPoint x="565" y="290" as="targetPoint" />
          </mxGeometry>
        </mxCell>
        <mxCell id="8gEPXH_LTYy4HOlQ8OhR-274" value="" style="curved=1;endArrow=none;html=1;rounded=0;endFill=0;fillColor=#d5e8d4;strokeColor=#82b366;dashed=1;dashPattern=1 1;entryX=0.5;entryY=1;entryDx=0;entryDy=0;" edge="1" parent="1" target="8gEPXH_LTYy4HOlQ8OhR-27">
          <mxGeometry width="50" height="50" relative="1" as="geometry">
            <mxPoint x="160" y="320" as="sourcePoint" />
            <mxPoint x="325" y="310" as="targetPoint" />
            <Array as="points">
              <mxPoint x="225" y="320" />
              <mxPoint x="245" y="320" />
            </Array>
          </mxGeometry>
        </mxCell>
        <mxCell id="8gEPXH_LTYy4HOlQ8OhR-276" value="" style="curved=1;endArrow=none;html=1;rounded=0;endFill=0;fillColor=#d5e8d4;strokeColor=#82b366;dashed=1;dashPattern=1 1;exitX=0.5;exitY=1;exitDx=0;exitDy=0;entryX=0.5;entryY=1;entryDx=0;entryDy=0;" edge="1" parent="1" source="8gEPXH_LTYy4HOlQ8OhR-27" target="8gEPXH_LTYy4HOlQ8OhR-124">
          <mxGeometry width="50" height="50" relative="1" as="geometry">
            <mxPoint x="600" y="320" as="sourcePoint" />
            <mxPoint x="765" y="310" as="targetPoint" />
            <Array as="points">
              <mxPoint x="245" y="320" />
              <mxPoint x="265" y="320" />
              <mxPoint x="705" y="320" />
              <mxPoint x="725" y="320" />
            </Array>
          </mxGeometry>
        </mxCell>
        <mxCell id="8gEPXH_LTYy4HOlQ8OhR-277" value="" style="endArrow=openThin;html=1;rounded=0;fillColor=#d5e8d4;strokeColor=#82b366;endSize=4;endFill=0;dashed=1;dashPattern=1 1;" edge="1" parent="1">
          <mxGeometry width="50" height="50" relative="1" as="geometry">
            <mxPoint x="715" y="320" as="sourcePoint" />
            <mxPoint x="775" y="460" as="targetPoint" />
          </mxGeometry>
        </mxCell>
        <mxCell id="8gEPXH_LTYy4HOlQ8OhR-278" value="" style="curved=1;endArrow=none;html=1;rounded=0;endFill=0;fillColor=#fff2cc;strokeColor=#d6b656;dashed=1;dashPattern=1 1;exitX=0.5;exitY=1;exitDx=0;exitDy=0;entryX=0.5;entryY=1;entryDx=0;entryDy=0;" edge="1" parent="1" source="8gEPXH_LTYy4HOlQ8OhR-124">
          <mxGeometry width="50" height="50" relative="1" as="geometry">
            <mxPoint x="365" y="310" as="sourcePoint" />
            <mxPoint x="765" y="310" as="targetPoint" />
            <Array as="points">
              <mxPoint x="725" y="320" />
              <mxPoint x="745" y="320" />
              <mxPoint x="765" y="320" />
            </Array>
          </mxGeometry>
        </mxCell>
        <mxCell id="8gEPXH_LTYy4HOlQ8OhR-279" value="" style="endArrow=openThin;html=1;rounded=0;fillColor=#fff2cc;strokeColor=#d6b656;endSize=4;endFill=0;dashed=1;dashPattern=1 1;" edge="1" parent="1">
          <mxGeometry width="50" height="50" relative="1" as="geometry">
            <mxPoint x="755" y="320" as="sourcePoint" />
            <mxPoint x="815" y="460" as="targetPoint" />
          </mxGeometry>
        </mxCell>
        <mxCell id="8gEPXH_LTYy4HOlQ8OhR-282" value="" style="ellipse;whiteSpace=wrap;html=1;fillColor=#fff2cc;strokeColor=#d6b656;" vertex="1" parent="1">
          <mxGeometry x="440" y="290" width="10" height="20" as="geometry" />
        </mxCell>
        <mxCell id="8gEPXH_LTYy4HOlQ8OhR-283" value="" style="curved=1;endArrow=none;html=1;rounded=0;endFill=0;fillColor=#fff2cc;strokeColor=#d6b656;dashed=1;dashPattern=1 1;" edge="1" parent="1">
          <mxGeometry width="50" height="50" relative="1" as="geometry">
            <mxPoint x="400" y="200" as="sourcePoint" />
            <mxPoint x="440" y="200" as="targetPoint" />
            <Array as="points">
              <mxPoint x="400" y="210" />
              <mxPoint x="420" y="210" />
              <mxPoint x="440" y="210" />
            </Array>
          </mxGeometry>
        </mxCell>
        <mxCell id="8gEPXH_LTYy4HOlQ8OhR-284" value="" style="curved=1;endArrow=none;html=1;rounded=0;endFill=0;fillColor=#d5e8d4;strokeColor=#82b366;dashed=1;dashPattern=1 1;" edge="1" parent="1">
          <mxGeometry width="50" height="50" relative="1" as="geometry">
            <mxPoint x="440" y="200" as="sourcePoint" />
            <mxPoint x="480" y="200" as="targetPoint" />
            <Array as="points">
              <mxPoint x="440" y="210" />
              <mxPoint x="460" y="210" />
              <mxPoint x="480" y="210" />
            </Array>
          </mxGeometry>
        </mxCell>
        <mxCell id="8gEPXH_LTYy4HOlQ8OhR-285" value="" style="endArrow=openThin;html=1;rounded=0;fillColor=#fff2cc;strokeColor=#d6b656;entryX=0.5;entryY=0;entryDx=0;entryDy=0;endSize=4;endFill=0;dashed=1;dashPattern=1 1;" edge="1" parent="1" target="8gEPXH_LTYy4HOlQ8OhR-282">
          <mxGeometry width="50" height="50" relative="1" as="geometry">
            <mxPoint x="430" y="210" as="sourcePoint" />
            <mxPoint x="445" y="290" as="targetPoint" />
          </mxGeometry>
        </mxCell>
        <mxCell id="8gEPXH_LTYy4HOlQ8OhR-286" value="" style="curved=1;endArrow=none;html=1;rounded=0;endFill=0;fillColor=#d5e8d4;strokeColor=#82b366;dashed=1;dashPattern=1 1;exitX=0.5;exitY=1;exitDx=0;exitDy=0;entryX=0.5;entryY=1;entryDx=0;entryDy=0;" edge="1" parent="1" target="8gEPXH_LTYy4HOlQ8OhR-143">
          <mxGeometry width="50" height="50" relative="1" as="geometry">
            <mxPoint x="765" y="310" as="sourcePoint" />
            <mxPoint x="1165" y="310" as="targetPoint" />
            <Array as="points">
              <mxPoint x="765" y="320" />
              <mxPoint x="785" y="320" />
              <mxPoint x="1185" y="320" />
              <mxPoint x="1205" y="320" />
            </Array>
          </mxGeometry>
        </mxCell>
        <mxCell id="8gEPXH_LTYy4HOlQ8OhR-287" value="&lt;font style=&quot;font-size: 12px;&quot;&gt;Batching&lt;/font&gt;" style="text;html=1;align=right;verticalAlign=middle;whiteSpace=wrap;rounded=0;fontSize=12;fillColor=none;strokeColor=none;fontColor=#999999;" vertex="1" parent="1">
          <mxGeometry y="195" width="120" height="20" as="geometry" />
        </mxCell>
        <mxCell id="8gEPXH_LTYy4HOlQ8OhR-291" value="&lt;font style=&quot;font-size: 12px;&quot;&gt;Delta Diffing&lt;/font&gt;" style="text;html=1;align=right;verticalAlign=middle;whiteSpace=wrap;rounded=0;fontSize=12;fillColor=none;strokeColor=none;fontColor=#999999;" vertex="1" parent="1">
          <mxGeometry y="310" width="120" height="20" as="geometry" />
        </mxCell>
        <mxCell id="8gEPXH_LTYy4HOlQ8OhR-293" value="" style="curved=1;endArrow=none;html=1;rounded=0;endFill=0;fillColor=#fff2cc;strokeColor=#d6b656;dashed=1;dashPattern=1 1;exitX=0.5;exitY=1;exitDx=0;exitDy=0;entryX=0.5;entryY=1;entryDx=0;entryDy=0;" edge="1" parent="1" target="8gEPXH_LTYy4HOlQ8OhR-146">
          <mxGeometry width="50" height="50" relative="1" as="geometry">
            <mxPoint x="1205" y="310" as="sourcePoint" />
            <mxPoint x="1285" y="310" as="targetPoint" />
            <Array as="points">
              <mxPoint x="1205" y="320" />
              <mxPoint x="1225" y="320" />
              <mxPoint x="1265" y="320" />
              <mxPoint x="1285" y="320" />
            </Array>
          </mxGeometry>
        </mxCell>
        <mxCell id="8gEPXH_LTYy4HOlQ8OhR-294" value="" style="ellipse;whiteSpace=wrap;html=1;fillColor=#fff2cc;strokeColor=#d6b656;" vertex="1" parent="1">
          <mxGeometry x="1380" y="450" width="10" height="20" as="geometry" />
        </mxCell>
        <mxCell id="8gEPXH_LTYy4HOlQ8OhR-296" style="edgeStyle=orthogonalEdgeStyle;rounded=0;orthogonalLoop=1;jettySize=auto;html=1;entryX=1;entryY=0.5;entryDx=0;entryDy=0;exitX=0.5;exitY=0;exitDx=0;exitDy=0;fillColor=#fff2cc;strokeColor=#d6b656;dashed=1;dashPattern=1 4;" edge="1" parent="1" source="8gEPXH_LTYy4HOlQ8OhR-294" target="8gEPXH_LTYy4HOlQ8OhR-146">
          <mxGeometry relative="1" as="geometry">
            <mxPoint x="1345" y="449.5" as="sourcePoint" />
            <mxPoint x="1290" y="299.5" as="targetPoint" />
          </mxGeometry>
        </mxCell>
        <mxCell id="8gEPXH_LTYy4HOlQ8OhR-297" value="" style="curved=1;endArrow=none;html=1;rounded=0;endFill=0;fillColor=#d5e8d4;strokeColor=#82b366;dashed=1;dashPattern=1 1;exitX=0.5;exitY=1;exitDx=0;exitDy=0;entryX=0.5;entryY=1;entryDx=0;entryDy=0;" edge="1" parent="1" source="8gEPXH_LTYy4HOlQ8OhR-146" target="8gEPXH_LTYy4HOlQ8OhR-303">
          <mxGeometry width="50" height="50" relative="1" as="geometry">
            <mxPoint x="1285" y="310" as="sourcePoint" />
            <mxPoint x="1620" y="320" as="targetPoint" />
            <Array as="points">
              <mxPoint x="1285" y="320" />
              <mxPoint x="1305" y="320" />
              <mxPoint x="1665" y="320" />
              <mxPoint x="1685" y="320" />
            </Array>
          </mxGeometry>
        </mxCell>
        <mxCell id="8gEPXH_LTYy4HOlQ8OhR-298" value="" style="endArrow=openThin;html=1;rounded=0;fillColor=#d5e8d4;strokeColor=#CCCCCC;endSize=4;endFill=0;dashed=1;dashPattern=1 2;" edge="1" parent="1">
          <mxGeometry width="50" height="50" relative="1" as="geometry">
            <mxPoint x="1195" y="320" as="sourcePoint" />
            <mxPoint x="1255" y="460" as="targetPoint" />
          </mxGeometry>
        </mxCell>
        <mxCell id="8gEPXH_LTYy4HOlQ8OhR-299" value="" style="endArrow=openThin;html=1;rounded=0;fillColor=#fff2cc;strokeColor=#d6b656;endSize=4;endFill=0;dashed=1;dashPattern=1 1;" edge="1" parent="1">
          <mxGeometry width="50" height="50" relative="1" as="geometry">
            <mxPoint x="1275" y="320" as="sourcePoint" />
            <mxPoint x="1415" y="460" as="targetPoint" />
          </mxGeometry>
        </mxCell>
        <mxCell id="8gEPXH_LTYy4HOlQ8OhR-300" value="" style="ellipse;whiteSpace=wrap;html=1;fillColor=#d5e8d4;strokeColor=#82b366;" vertex="1" parent="1">
          <mxGeometry x="1600" y="290" width="10" height="20" as="geometry" />
        </mxCell>
        <mxCell id="8gEPXH_LTYy4HOlQ8OhR-301" value="" style="endArrow=openThin;html=1;rounded=0;fillColor=#d5e8d4;strokeColor=#82b366;entryX=0.5;entryY=0;entryDx=0;entryDy=0;endSize=4;endFill=0;dashed=1;dashPattern=1 1;" edge="1" target="8gEPXH_LTYy4HOlQ8OhR-300" parent="1">
          <mxGeometry width="50" height="50" relative="1" as="geometry">
            <mxPoint x="1590" y="210" as="sourcePoint" />
            <mxPoint x="1605" y="270" as="targetPoint" />
          </mxGeometry>
        </mxCell>
        <mxCell id="8gEPXH_LTYy4HOlQ8OhR-303" value="" style="ellipse;whiteSpace=wrap;html=1;fillColor=#d5e8d4;strokeColor=#82b366;" vertex="1" parent="1">
          <mxGeometry x="1680" y="290" width="10" height="20" as="geometry" />
        </mxCell>
        <mxCell id="8gEPXH_LTYy4HOlQ8OhR-304" value="" style="endArrow=openThin;html=1;rounded=0;fillColor=#d5e8d4;strokeColor=#82b366;entryX=0.5;entryY=0;entryDx=0;entryDy=0;endSize=4;endFill=0;dashed=1;dashPattern=1 1;" edge="1" target="8gEPXH_LTYy4HOlQ8OhR-303" parent="1">
          <mxGeometry width="50" height="50" relative="1" as="geometry">
            <mxPoint x="1670" y="210" as="sourcePoint" />
            <mxPoint x="1685" y="270" as="targetPoint" />
          </mxGeometry>
        </mxCell>
        <mxCell id="8gEPXH_LTYy4HOlQ8OhR-306" value="" style="ellipse;whiteSpace=wrap;html=1;fillColor=#d5e8d4;strokeColor=#82b366;" vertex="1" parent="1">
          <mxGeometry x="1740" y="450" width="10" height="20" as="geometry" />
        </mxCell>
        <mxCell id="8gEPXH_LTYy4HOlQ8OhR-307" value="" style="ellipse;whiteSpace=wrap;html=1;fillColor=none;strokeColor=#82b366;" vertex="1" parent="1">
          <mxGeometry x="1700" y="450" width="10" height="20" as="geometry" />
        </mxCell>
        <mxCell id="8gEPXH_LTYy4HOlQ8OhR-308" style="edgeStyle=orthogonalEdgeStyle;rounded=0;orthogonalLoop=1;jettySize=auto;html=1;entryX=1;entryY=0.5;entryDx=0;entryDy=0;endSize=4;endArrow=openThin;endFill=0;dashed=1;dashPattern=1 2;fillColor=#d5e8d4;strokeColor=#82b366;exitX=0.5;exitY=0;exitDx=0;exitDy=0;" edge="1" source="8gEPXH_LTYy4HOlQ8OhR-307" parent="1">
          <mxGeometry relative="1" as="geometry">
            <mxPoint x="1690" y="300" as="targetPoint" />
            <Array as="points">
              <mxPoint x="1705" y="300" />
            </Array>
          </mxGeometry>
        </mxCell>
        <mxCell id="8gEPXH_LTYy4HOlQ8OhR-309" style="edgeStyle=orthogonalEdgeStyle;rounded=0;orthogonalLoop=1;jettySize=auto;html=1;exitX=0.5;exitY=0;exitDx=0;exitDy=0;fillColor=#d5e8d4;strokeColor=#82b366;dashed=1;dashPattern=1 2;endSize=4;endArrow=openThin;endFill=0;" edge="1" source="8gEPXH_LTYy4HOlQ8OhR-306" parent="1">
          <mxGeometry relative="1" as="geometry">
            <mxPoint x="1690" y="300" as="targetPoint" />
            <Array as="points">
              <mxPoint x="1745" y="300" />
            </Array>
          </mxGeometry>
        </mxCell>
        <mxCell id="8gEPXH_LTYy4HOlQ8OhR-310" value="" style="endArrow=openThin;html=1;rounded=0;fillColor=#d5e8d4;strokeColor=#82b366;endSize=4;endFill=0;dashed=1;dashPattern=1 1;" edge="1" parent="1">
          <mxGeometry width="50" height="50" relative="1" as="geometry">
            <mxPoint x="1675" y="320" as="sourcePoint" />
            <mxPoint x="1735" y="460" as="targetPoint" />
          </mxGeometry>
        </mxCell>
        <mxCell id="8gEPXH_LTYy4HOlQ8OhR-311" value="" style="curved=1;endArrow=none;html=1;rounded=0;endFill=0;fillColor=#d5e8d4;strokeColor=#82b366;dashed=1;dashPattern=1 1;exitX=0.5;exitY=1;exitDx=0;exitDy=0;" edge="1" parent="1" source="8gEPXH_LTYy4HOlQ8OhR-303">
          <mxGeometry width="50" height="50" relative="1" as="geometry">
            <mxPoint x="1685" y="310" as="sourcePoint" />
            <mxPoint x="1760" y="320" as="targetPoint" />
            <Array as="points">
              <mxPoint x="1685" y="320" />
              <mxPoint x="1705" y="320" />
            </Array>
          </mxGeometry>
        </mxCell>
        <mxCell id="8gEPXH_LTYy4HOlQ8OhR-312" value="" style="curved=1;endArrow=none;html=1;rounded=0;endFill=0;fillColor=#d5e8d4;strokeColor=#82b366;dashed=1;dashPattern=1 4;" edge="1" parent="1">
          <mxGeometry width="50" height="50" relative="1" as="geometry">
            <mxPoint x="140" y="320" as="sourcePoint" />
            <mxPoint x="160" y="320" as="targetPoint" />
            <Array as="points" />
          </mxGeometry>
        </mxCell>
        <mxCell id="8gEPXH_LTYy4HOlQ8OhR-313" value="" style="curved=1;endArrow=none;html=1;rounded=0;endFill=0;fillColor=#d5e8d4;strokeColor=#82b366;dashed=1;dashPattern=1 4;" edge="1" parent="1">
          <mxGeometry width="50" height="50" relative="1" as="geometry">
            <mxPoint x="1760" y="320" as="sourcePoint" />
            <mxPoint x="1780" y="320" as="targetPoint" />
            <Array as="points">
              <mxPoint x="1760" y="320" />
            </Array>
          </mxGeometry>
        </mxCell>
        <mxCell id="8gEPXH_LTYy4HOlQ8OhR-314" value="" style="endArrow=none;html=1;rounded=0;exitX=0.5;exitY=1;exitDx=0;exitDy=0;fillColor=#f8cecc;strokeColor=#b85450;dashed=1;dashPattern=1 1;" edge="1" parent="1" source="8gEPXH_LTYy4HOlQ8OhR-221">
          <mxGeometry width="50" height="50" relative="1" as="geometry">
            <mxPoint x="895" y="380" as="sourcePoint" />
            <mxPoint x="785" y="490" as="targetPoint" />
          </mxGeometry>
        </mxCell>
        <mxCell id="8gEPXH_LTYy4HOlQ8OhR-315" value="" style="endArrow=none;html=1;rounded=0;fillColor=#f8cecc;strokeColor=#b85450;dashed=1;dashPattern=1 1;" edge="1" parent="1">
          <mxGeometry width="50" height="50" relative="1" as="geometry">
            <mxPoint x="815" y="460" as="sourcePoint" />
            <mxPoint x="814.83" y="490" as="targetPoint" />
          </mxGeometry>
        </mxCell>
        <mxCell id="8gEPXH_LTYy4HOlQ8OhR-316" value="" style="endArrow=openThin;html=1;rounded=0;fillColor=#f8cecc;strokeColor=#b85450;endFill=0;startArrow=openThin;startFill=0;endSize=4;startSize=4;" edge="1" parent="1">
          <mxGeometry width="50" height="50" relative="1" as="geometry">
            <mxPoint x="785" y="480" as="sourcePoint" />
            <mxPoint x="815" y="480" as="targetPoint" />
          </mxGeometry>
        </mxCell>
        <mxCell id="8gEPXH_LTYy4HOlQ8OhR-318" value="" style="endArrow=none;html=1;rounded=0;exitX=0.5;exitY=1;exitDx=0;exitDy=0;fillColor=#f8cecc;strokeColor=#b85450;dashed=1;dashPattern=1 1;" edge="1" parent="1">
          <mxGeometry width="50" height="50" relative="1" as="geometry">
            <mxPoint x="1385" y="470" as="sourcePoint" />
            <mxPoint x="1385" y="490" as="targetPoint" />
          </mxGeometry>
        </mxCell>
        <mxCell id="8gEPXH_LTYy4HOlQ8OhR-319" value="" style="endArrow=none;html=1;rounded=0;fillColor=#f8cecc;strokeColor=#b85450;dashed=1;dashPattern=1 1;" edge="1" parent="1">
          <mxGeometry width="50" height="50" relative="1" as="geometry">
            <mxPoint x="1415" y="460" as="sourcePoint" />
            <mxPoint x="1414.83" y="490" as="targetPoint" />
          </mxGeometry>
        </mxCell>
        <mxCell id="8gEPXH_LTYy4HOlQ8OhR-320" value="" style="endArrow=openThin;html=1;rounded=0;fillColor=#f8cecc;strokeColor=#b85450;endFill=0;startArrow=openThin;startFill=0;endSize=4;startSize=4;" edge="1" parent="1">
          <mxGeometry width="50" height="50" relative="1" as="geometry">
            <mxPoint x="1385" y="480" as="sourcePoint" />
            <mxPoint x="1415" y="480" as="targetPoint" />
          </mxGeometry>
        </mxCell>
        <mxCell id="8gEPXH_LTYy4HOlQ8OhR-323" value="&lt;font style=&quot;font-size: 16px;&quot;&gt;Time&lt;/font&gt;" style="text;html=1;align=right;verticalAlign=middle;whiteSpace=wrap;rounded=0;fontSize=16;fillColor=none;strokeColor=none;fontColor=#999999;fontStyle=1" vertex="1" parent="1">
          <mxGeometry y="130" width="120" height="20" as="geometry" />
        </mxCell>
        <mxCell id="8gEPXH_LTYy4HOlQ8OhR-324" value="&lt;font style=&quot;font-size: 10px;&quot;&gt;0:00&lt;/font&gt;" style="text;html=1;align=center;verticalAlign=middle;whiteSpace=wrap;rounded=0;fontSize=10;fillColor=none;strokeColor=none;fontColor=#999999;fontStyle=1" vertex="1" parent="1">
          <mxGeometry x="140" y="130" width="40" height="20" as="geometry" />
        </mxCell>
        <mxCell id="8gEPXH_LTYy4HOlQ8OhR-325" value="&lt;font style=&quot;font-size: 10px;&quot;&gt;:1&lt;/font&gt;&lt;span style=&quot;background-color: initial; font-size: 10px;&quot;&gt;0&lt;/span&gt;" style="text;html=1;align=center;verticalAlign=middle;whiteSpace=wrap;rounded=0;fontSize=10;fillColor=none;strokeColor=none;fontColor=#B3B3B3;" vertex="1" parent="1">
          <mxGeometry x="220" y="130" width="40" height="20" as="geometry" />
        </mxCell>
        <mxCell id="8gEPXH_LTYy4HOlQ8OhR-326" value="&lt;font style=&quot;font-size: 10px;&quot;&gt;:2&lt;/font&gt;&lt;span style=&quot;background-color: initial; font-size: 10px;&quot;&gt;0&lt;/span&gt;" style="text;html=1;align=center;verticalAlign=middle;whiteSpace=wrap;rounded=0;fontSize=10;fillColor=none;strokeColor=none;fontColor=#B3B3B3;" vertex="1" parent="1">
          <mxGeometry x="300" y="130" width="40" height="20" as="geometry" />
        </mxCell>
        <mxCell id="8gEPXH_LTYy4HOlQ8OhR-327" value="&lt;font style=&quot;font-size: 10px;&quot;&gt;:3&lt;/font&gt;&lt;span style=&quot;background-color: initial; font-size: 10px;&quot;&gt;0&lt;/span&gt;" style="text;html=1;align=center;verticalAlign=middle;whiteSpace=wrap;rounded=0;fontSize=10;fillColor=none;strokeColor=none;fontColor=#B3B3B3;" vertex="1" parent="1">
          <mxGeometry x="380" y="130" width="40" height="20" as="geometry" />
        </mxCell>
        <mxCell id="8gEPXH_LTYy4HOlQ8OhR-328" value="&lt;font style=&quot;font-size: 10px;&quot;&gt;:4&lt;/font&gt;&lt;span style=&quot;background-color: initial; font-size: 10px;&quot;&gt;0&lt;/span&gt;" style="text;html=1;align=center;verticalAlign=middle;whiteSpace=wrap;rounded=0;fontSize=10;fillColor=none;strokeColor=none;fontColor=#B3B3B3;" vertex="1" parent="1">
          <mxGeometry x="460" y="130" width="40" height="20" as="geometry" />
        </mxCell>
        <mxCell id="8gEPXH_LTYy4HOlQ8OhR-329" value="&lt;font style=&quot;font-size: 10px;&quot;&gt;:5&lt;/font&gt;&lt;span style=&quot;background-color: initial; font-size: 10px;&quot;&gt;0&lt;/span&gt;" style="text;html=1;align=center;verticalAlign=middle;whiteSpace=wrap;rounded=0;fontSize=10;fillColor=none;strokeColor=none;fontColor=#B3B3B3;" vertex="1" parent="1">
          <mxGeometry x="540" y="130" width="40" height="20" as="geometry" />
        </mxCell>
        <mxCell id="8gEPXH_LTYy4HOlQ8OhR-330" value="&lt;font style=&quot;font-size: 10px;&quot;&gt;1:00&lt;/font&gt;" style="text;html=1;align=center;verticalAlign=middle;whiteSpace=wrap;rounded=0;fontSize=10;fillColor=none;strokeColor=none;fontColor=#999999;fontStyle=1" vertex="1" parent="1">
          <mxGeometry x="620" y="130" width="40" height="20" as="geometry" />
        </mxCell>
        <mxCell id="8gEPXH_LTYy4HOlQ8OhR-336" value="&lt;font style=&quot;font-size: 10px;&quot;&gt;2&lt;/font&gt;&lt;span style=&quot;background-color: initial; font-size: 10px;&quot;&gt;:00&lt;/span&gt;" style="text;html=1;align=center;verticalAlign=middle;whiteSpace=wrap;rounded=0;fontSize=10;fillColor=none;strokeColor=none;fontColor=#999999;fontStyle=1" vertex="1" parent="1">
          <mxGeometry x="1100" y="130" width="40" height="20" as="geometry" />
        </mxCell>
        <mxCell id="8gEPXH_LTYy4HOlQ8OhR-342" value="&lt;span style=&quot;background-color: initial; font-size: 10px;&quot;&gt;3:00&lt;/span&gt;" style="text;html=1;align=center;verticalAlign=middle;whiteSpace=wrap;rounded=0;fontSize=10;fillColor=none;strokeColor=none;fontColor=#999999;fontStyle=1" vertex="1" parent="1">
          <mxGeometry x="1580" y="130" width="40" height="20" as="geometry" />
        </mxCell>
        <mxCell id="8gEPXH_LTYy4HOlQ8OhR-346" value="&lt;font style=&quot;font-size: 10px;&quot;&gt;:1&lt;/font&gt;&lt;span style=&quot;background-color: initial; font-size: 10px;&quot;&gt;0&lt;/span&gt;" style="text;html=1;align=center;verticalAlign=middle;whiteSpace=wrap;rounded=0;fontSize=10;fillColor=none;strokeColor=none;fontColor=#B3B3B3;" vertex="1" parent="1">
          <mxGeometry x="700" y="130" width="40" height="20" as="geometry" />
        </mxCell>
        <mxCell id="8gEPXH_LTYy4HOlQ8OhR-347" value="&lt;font style=&quot;font-size: 10px;&quot;&gt;:2&lt;/font&gt;&lt;span style=&quot;background-color: initial; font-size: 10px;&quot;&gt;0&lt;/span&gt;" style="text;html=1;align=center;verticalAlign=middle;whiteSpace=wrap;rounded=0;fontSize=10;fillColor=none;strokeColor=none;fontColor=#B3B3B3;" vertex="1" parent="1">
          <mxGeometry x="780" y="130" width="40" height="20" as="geometry" />
        </mxCell>
        <mxCell id="8gEPXH_LTYy4HOlQ8OhR-348" value="&lt;font style=&quot;font-size: 10px;&quot;&gt;:3&lt;/font&gt;&lt;span style=&quot;background-color: initial; font-size: 10px;&quot;&gt;0&lt;/span&gt;" style="text;html=1;align=center;verticalAlign=middle;whiteSpace=wrap;rounded=0;fontSize=10;fillColor=none;strokeColor=none;fontColor=#B3B3B3;" vertex="1" parent="1">
          <mxGeometry x="860" y="130" width="40" height="20" as="geometry" />
        </mxCell>
        <mxCell id="8gEPXH_LTYy4HOlQ8OhR-349" value="&lt;font style=&quot;font-size: 10px;&quot;&gt;:4&lt;/font&gt;&lt;span style=&quot;background-color: initial; font-size: 10px;&quot;&gt;0&lt;/span&gt;" style="text;html=1;align=center;verticalAlign=middle;whiteSpace=wrap;rounded=0;fontSize=10;fillColor=none;strokeColor=none;fontColor=#B3B3B3;" vertex="1" parent="1">
          <mxGeometry x="940" y="130" width="40" height="20" as="geometry" />
        </mxCell>
        <mxCell id="8gEPXH_LTYy4HOlQ8OhR-350" value="&lt;font style=&quot;font-size: 10px;&quot;&gt;:5&lt;/font&gt;&lt;span style=&quot;background-color: initial; font-size: 10px;&quot;&gt;0&lt;/span&gt;" style="text;html=1;align=center;verticalAlign=middle;whiteSpace=wrap;rounded=0;fontSize=10;fillColor=none;strokeColor=none;fontColor=#B3B3B3;" vertex="1" parent="1">
          <mxGeometry x="1020" y="130" width="40" height="20" as="geometry" />
        </mxCell>
        <mxCell id="8gEPXH_LTYy4HOlQ8OhR-351" value="&lt;font style=&quot;font-size: 10px;&quot;&gt;:1&lt;/font&gt;&lt;span style=&quot;background-color: initial; font-size: 10px;&quot;&gt;0&lt;/span&gt;" style="text;html=1;align=center;verticalAlign=middle;whiteSpace=wrap;rounded=0;fontSize=10;fillColor=none;strokeColor=none;fontColor=#B3B3B3;" vertex="1" parent="1">
          <mxGeometry x="1180" y="130" width="40" height="20" as="geometry" />
        </mxCell>
        <mxCell id="8gEPXH_LTYy4HOlQ8OhR-352" value="&lt;font style=&quot;font-size: 10px;&quot;&gt;:2&lt;/font&gt;&lt;span style=&quot;background-color: initial; font-size: 10px;&quot;&gt;0&lt;/span&gt;" style="text;html=1;align=center;verticalAlign=middle;whiteSpace=wrap;rounded=0;fontSize=10;fillColor=none;strokeColor=none;fontColor=#B3B3B3;" vertex="1" parent="1">
          <mxGeometry x="1260" y="130" width="40" height="20" as="geometry" />
        </mxCell>
        <mxCell id="8gEPXH_LTYy4HOlQ8OhR-353" value="&lt;font style=&quot;font-size: 10px;&quot;&gt;:3&lt;/font&gt;&lt;span style=&quot;background-color: initial; font-size: 10px;&quot;&gt;0&lt;/span&gt;" style="text;html=1;align=center;verticalAlign=middle;whiteSpace=wrap;rounded=0;fontSize=10;fillColor=none;strokeColor=none;fontColor=#B3B3B3;" vertex="1" parent="1">
          <mxGeometry x="1340" y="130" width="40" height="20" as="geometry" />
        </mxCell>
        <mxCell id="8gEPXH_LTYy4HOlQ8OhR-354" value="&lt;font style=&quot;font-size: 10px;&quot;&gt;:4&lt;/font&gt;&lt;span style=&quot;background-color: initial; font-size: 10px;&quot;&gt;0&lt;/span&gt;" style="text;html=1;align=center;verticalAlign=middle;whiteSpace=wrap;rounded=0;fontSize=10;fillColor=none;strokeColor=none;fontColor=#B3B3B3;" vertex="1" parent="1">
          <mxGeometry x="1420" y="130" width="40" height="20" as="geometry" />
        </mxCell>
        <mxCell id="8gEPXH_LTYy4HOlQ8OhR-355" value="&lt;font style=&quot;font-size: 10px;&quot;&gt;:5&lt;/font&gt;&lt;span style=&quot;background-color: initial; font-size: 10px;&quot;&gt;0&lt;/span&gt;" style="text;html=1;align=center;verticalAlign=middle;whiteSpace=wrap;rounded=0;fontSize=10;fillColor=none;strokeColor=none;fontColor=#B3B3B3;" vertex="1" parent="1">
          <mxGeometry x="1500" y="130" width="40" height="20" as="geometry" />
        </mxCell>
        <mxCell id="8gEPXH_LTYy4HOlQ8OhR-356" value="&lt;font style=&quot;font-size: 10px;&quot;&gt;:1&lt;/font&gt;&lt;span style=&quot;background-color: initial; font-size: 10px;&quot;&gt;0&lt;/span&gt;" style="text;html=1;align=center;verticalAlign=middle;whiteSpace=wrap;rounded=0;fontSize=10;fillColor=none;strokeColor=none;fontColor=#B3B3B3;" vertex="1" parent="1">
          <mxGeometry x="1660" y="130" width="40" height="20" as="geometry" />
        </mxCell>
        <mxCell id="8gEPXH_LTYy4HOlQ8OhR-381" value="" style="endArrow=openThin;html=1;rounded=0;endFill=0;exitX=0;exitY=0.5;exitDx=0;exitDy=0;" edge="1" parent="1" source="8gEPXH_LTYy4HOlQ8OhR-384">
          <mxGeometry width="50" height="50" relative="1" as="geometry">
            <mxPoint x="280" y="360" as="sourcePoint" />
            <mxPoint x="265" y="330" as="targetPoint" />
          </mxGeometry>
        </mxCell>
        <mxCell id="8gEPXH_LTYy4HOlQ8OhR-382" value="" style="endArrow=openThin;html=1;rounded=0;endFill=0;exitX=0;exitY=0.5;exitDx=0;exitDy=0;" edge="1" parent="1" source="8gEPXH_LTYy4HOlQ8OhR-386">
          <mxGeometry width="50" height="50" relative="1" as="geometry">
            <mxPoint x="280" y="380" as="sourcePoint" />
            <mxPoint x="250" y="355" as="targetPoint" />
          </mxGeometry>
        </mxCell>
        <mxCell id="8gEPXH_LTYy4HOlQ8OhR-391" value="" style="endArrow=openThin;html=1;rounded=0;endFill=0;" edge="1" source="8gEPXH_LTYy4HOlQ8OhR-390" parent="1" target="8gEPXH_LTYy4HOlQ8OhR-282">
          <mxGeometry width="50" height="50" relative="1" as="geometry">
            <mxPoint x="525" y="385" as="sourcePoint" />
            <mxPoint x="630" y="415" as="targetPoint" />
          </mxGeometry>
        </mxCell>
        <mxCell id="8gEPXH_LTYy4HOlQ8OhR-392" value="" style="endArrow=openThin;html=1;rounded=0;endFill=0;" edge="1" parent="1" source="8gEPXH_LTYy4HOlQ8OhR-390" target="8gEPXH_LTYy4HOlQ8OhR-260">
          <mxGeometry width="50" height="50" relative="1" as="geometry">
            <mxPoint x="570" y="395" as="sourcePoint" />
            <mxPoint x="450" y="315" as="targetPoint" />
          </mxGeometry>
        </mxCell>
        <mxCell id="8gEPXH_LTYy4HOlQ8OhR-387" value="job request has commit hash to use" style="text;html=1;align=left;verticalAlign=middle;whiteSpace=wrap;rounded=0;" vertex="1" parent="1">
          <mxGeometry x="330" y="410" width="215" height="20" as="geometry" />
        </mxCell>
        <mxCell id="8gEPXH_LTYy4HOlQ8OhR-390" value="&lt;b&gt;&lt;font color=&quot;#d6b656&quot;&gt;emergent&lt;/font&gt;&lt;/b&gt;&amp;nbsp;commits" style="text;html=1;align=center;verticalAlign=middle;whiteSpace=wrap;rounded=0;" vertex="1" parent="1">
          <mxGeometry x="550" y="375" width="100" height="20" as="geometry" />
        </mxCell>
        <mxCell id="8gEPXH_LTYy4HOlQ8OhR-401" value="&lt;b&gt;&lt;font color=&quot;#d6b656&quot;&gt;emergent&lt;/font&gt;&lt;/b&gt;&amp;nbsp;one-shot compute &lt;font color=&quot;#b3b3b3&quot;&gt;(w/o prefetch&lt;span style=&quot;text-align: left;&quot;&gt;&amp;nbsp;–&lt;/span&gt;&lt;span style=&quot;text-align: left; background-color: initial;&quot;&gt;&amp;nbsp;incurs&amp;nbsp;&lt;/span&gt;&lt;/font&gt;&lt;b style=&quot;text-align: left; background-color: initial; color: rgb(184, 84, 80);&quot;&gt;delay&lt;/b&gt;&lt;span style=&quot;text-align: left; background-color: initial;&quot;&gt;&lt;font color=&quot;#b3b3b3&quot;&gt;)&lt;/font&gt;&lt;/span&gt;" style="text;html=1;align=center;verticalAlign=middle;whiteSpace=wrap;rounded=0;" vertex="1" parent="1">
          <mxGeometry x="1300" y="565" width="160" height="30" as="geometry" />
        </mxCell>
        <mxCell id="8gEPXH_LTYy4HOlQ8OhR-402" value="" style="endArrow=openThin;html=1;rounded=0;endFill=0;exitX=0.25;exitY=0;exitDx=0;exitDy=0;" edge="1" source="8gEPXH_LTYy4HOlQ8OhR-401" parent="1" target="8gEPXH_LTYy4HOlQ8OhR-294">
          <mxGeometry width="50" height="50" relative="1" as="geometry">
            <mxPoint x="1375" y="392" as="sourcePoint" />
            <mxPoint x="1300" y="310" as="targetPoint" />
          </mxGeometry>
        </mxCell>
        <mxCell id="8gEPXH_LTYy4HOlQ8OhR-403" value="&lt;b&gt;fetch&amp;nbsp;delta diff&lt;/b&gt; to the requested commit&lt;br&gt;&lt;font color=&quot;#b3b3b3&quot;&gt;(unexpected step –&lt;span style=&quot;background-color: initial;&quot;&gt;&amp;nbsp;incurs&amp;nbsp;&lt;/span&gt;&lt;/font&gt;&lt;b style=&quot;background-color: initial; color: rgb(184, 84, 80);&quot;&gt;delay&lt;/b&gt;&lt;span style=&quot;background-color: initial;&quot;&gt;&lt;font color=&quot;#b3b3b3&quot;&gt;)&lt;/font&gt;&lt;/span&gt;" style="text;html=1;align=left;verticalAlign=middle;whiteSpace=wrap;rounded=0;" vertex="1" parent="1">
          <mxGeometry x="830" y="390" width="260" height="30" as="geometry" />
        </mxCell>
        <mxCell id="8gEPXH_LTYy4HOlQ8OhR-404" value="" style="endArrow=openThin;html=1;rounded=0;endFill=0;strokeWidth=1;exitX=0;exitY=0.25;exitDx=0;exitDy=0;" edge="1" source="8gEPXH_LTYy4HOlQ8OhR-403" parent="1">
          <mxGeometry width="50" height="50" relative="1" as="geometry">
            <mxPoint x="935" y="352.5" as="sourcePoint" />
            <mxPoint x="795" y="410" as="targetPoint" />
          </mxGeometry>
        </mxCell>
        <mxCell id="8gEPXH_LTYy4HOlQ8OhR-405" value="job request has different&amp;nbsp;&lt;font color=&quot;#d6b656&quot;&gt;&lt;b&gt;emergent&lt;/b&gt;&lt;/font&gt; commit hash" style="text;html=1;align=left;verticalAlign=middle;whiteSpace=wrap;rounded=0;" vertex="1" parent="1">
          <mxGeometry x="830" y="360" width="260" height="20" as="geometry" />
        </mxCell>
        <mxCell id="8gEPXH_LTYy4HOlQ8OhR-408" value="" style="endArrow=openThin;html=1;rounded=0;endFill=0;strokeWidth=1;exitX=0;exitY=0.5;exitDx=0;exitDy=0;" edge="1" parent="1" source="8gEPXH_LTYy4HOlQ8OhR-405">
          <mxGeometry width="50" height="50" relative="1" as="geometry">
            <mxPoint x="840" y="370" as="sourcePoint" />
            <mxPoint x="785" y="360" as="targetPoint" />
          </mxGeometry>
        </mxCell>
        <mxCell id="8gEPXH_LTYy4HOlQ8OhR-410" style="rounded=0;orthogonalLoop=1;jettySize=auto;html=1;endSize=4;endArrow=openThin;endFill=0;" edge="1" parent="1" source="8gEPXH_LTYy4HOlQ8OhR-409" target="8gEPXH_LTYy4HOlQ8OhR-123">
          <mxGeometry relative="1" as="geometry" />
        </mxCell>
        <mxCell id="8gEPXH_LTYy4HOlQ8OhR-409" value="&lt;b&gt;&lt;font color=&quot;#b3b3b3&quot;&gt;skipped&lt;/font&gt;&lt;/b&gt; commit" style="text;html=1;align=center;verticalAlign=middle;whiteSpace=wrap;rounded=0;" vertex="1" parent="1">
          <mxGeometry x="605" y="250" width="100" height="20" as="geometry" />
        </mxCell>
        <mxCell id="8gEPXH_LTYy4HOlQ8OhR-263" value="" style="ellipse;whiteSpace=wrap;html=1;fillColor=none;strokeColor=#82b366;strokeWidth=1;" vertex="1" parent="1">
          <mxGeometry x="260" y="450" width="10" height="20" as="geometry" />
        </mxCell>
        <mxCell id="8gEPXH_LTYy4HOlQ8OhR-265" value="" style="ellipse;whiteSpace=wrap;html=1;fillColor=#d5e8d4;strokeColor=#82b366;" vertex="1" parent="1">
          <mxGeometry x="300" y="450" width="10" height="20" as="geometry" />
        </mxCell>
        <mxCell id="8gEPXH_LTYy4HOlQ8OhR-384" value="&lt;b&gt;query latest&lt;/b&gt; for prefetch" style="text;html=1;align=left;verticalAlign=middle;whiteSpace=wrap;rounded=0;" vertex="1" parent="1">
          <mxGeometry x="330" y="340" width="150" height="20" as="geometry" />
        </mxCell>
        <mxCell id="8gEPXH_LTYy4HOlQ8OhR-275" value="" style="endArrow=openThin;html=1;rounded=0;fillColor=#d5e8d4;strokeColor=#82b366;endSize=4;endFill=0;dashed=1;dashPattern=1 1;" edge="1" parent="1">
          <mxGeometry width="50" height="50" relative="1" as="geometry">
            <mxPoint x="235" y="320" as="sourcePoint" />
            <mxPoint x="295" y="460" as="targetPoint" />
          </mxGeometry>
        </mxCell>
        <mxCell id="8gEPXH_LTYy4HOlQ8OhR-386" value="then (pre-)&lt;b&gt;fetch delta diff&lt;/b&gt;" style="text;html=1;align=left;verticalAlign=middle;whiteSpace=wrap;rounded=0;" vertex="1" parent="1">
          <mxGeometry x="330" y="360" width="150" height="20" as="geometry" />
        </mxCell>
        <mxCell id="8gEPXH_LTYy4HOlQ8OhR-416" value="" style="endArrow=openThin;html=1;rounded=0;endFill=0;strokeWidth=1;" edge="1" parent="1" source="8gEPXH_LTYy4HOlQ8OhR-403" target="8gEPXH_LTYy4HOlQ8OhR-431">
          <mxGeometry width="50" height="50" relative="1" as="geometry">
            <mxPoint x="970" y="450" as="sourcePoint" />
            <mxPoint x="890" y="465" as="targetPoint" />
          </mxGeometry>
        </mxCell>
        <mxCell id="8gEPXH_LTYy4HOlQ8OhR-418" value="" style="endArrow=openThin;html=1;rounded=0;endFill=0;strokeWidth=1;exitX=0.75;exitY=0;exitDx=0;exitDy=0;" edge="1" source="8gEPXH_LTYy4HOlQ8OhR-401" parent="1">
          <mxGeometry width="50" height="50" relative="1" as="geometry">
            <mxPoint x="1330" y="540" as="sourcePoint" />
            <mxPoint x="1400" y="480" as="targetPoint" />
          </mxGeometry>
        </mxCell>
        <mxCell id="8gEPXH_LTYy4HOlQ8OhR-419" value="" style="endArrow=none;html=1;rounded=0;entryX=0.5;entryY=1;entryDx=0;entryDy=0;fillColor=#d5e8d4;strokeColor=#82b366;dashed=1;dashPattern=1 1;" edge="1" parent="1" target="8gEPXH_LTYy4HOlQ8OhR-263">
          <mxGeometry width="50" height="50" relative="1" as="geometry">
            <mxPoint x="265" y="510" as="sourcePoint" />
            <mxPoint x="285" y="510" as="targetPoint" />
          </mxGeometry>
        </mxCell>
        <mxCell id="8gEPXH_LTYy4HOlQ8OhR-420" value="" style="endArrow=none;html=1;rounded=0;entryX=0.5;entryY=1;entryDx=0;entryDy=0;fillColor=#fff2cc;strokeColor=#d6b656;dashed=1;dashPattern=1 1;" edge="1" parent="1">
          <mxGeometry width="50" height="50" relative="1" as="geometry">
            <mxPoint x="295" y="490" as="sourcePoint" />
            <mxPoint x="294.76" y="470" as="targetPoint" />
          </mxGeometry>
        </mxCell>
        <mxCell id="8gEPXH_LTYy4HOlQ8OhR-422" value="" style="endArrow=none;html=1;rounded=0;entryX=0.5;entryY=1;entryDx=0;entryDy=0;fillColor=#d5e8d4;strokeColor=#82b366;dashed=1;dashPattern=1 1;" edge="1" parent="1">
          <mxGeometry width="50" height="50" relative="1" as="geometry">
            <mxPoint x="305" y="510" as="sourcePoint" />
            <mxPoint x="304.76" y="470" as="targetPoint" />
          </mxGeometry>
        </mxCell>
        <mxCell id="8gEPXH_LTYy4HOlQ8OhR-423" value="" style="endArrow=openThin;startArrow=openThin;html=1;rounded=0;endSize=4;startSize=4;endFill=0;startFill=0;fillColor=#fff2cc;strokeColor=#d6b656;" edge="1" parent="1">
          <mxGeometry width="50" height="50" relative="1" as="geometry">
            <mxPoint x="265" y="480" as="sourcePoint" />
            <mxPoint x="295" y="480" as="targetPoint" />
          </mxGeometry>
        </mxCell>
        <mxCell id="8gEPXH_LTYy4HOlQ8OhR-424" value="" style="endArrow=openThin;startArrow=openThin;html=1;rounded=0;endSize=4;startSize=4;endFill=0;startFill=0;fillColor=#d5e8d4;strokeColor=#82b366;" edge="1" parent="1">
          <mxGeometry width="50" height="50" relative="1" as="geometry">
            <mxPoint x="265" y="500" as="sourcePoint" />
            <mxPoint x="305" y="500" as="targetPoint" />
          </mxGeometry>
        </mxCell>
        <mxCell id="8gEPXH_LTYy4HOlQ8OhR-429" value="&lt;span style=&quot;text-wrap: nowrap;&quot;&gt;&lt;font style=&quot;&quot; color=&quot;#d6b656&quot;&gt;query-fetch &lt;b&gt;latency&lt;/b&gt;&lt;/font&gt;&amp;nbsp;&lt;/span&gt;&lt;font color=&quot;#b3b3b3&quot; style=&quot;text-wrap: nowrap;&quot;&gt;(measured)&lt;/font&gt;" style="text;html=1;align=left;verticalAlign=middle;whiteSpace=wrap;rounded=0;" vertex="1" parent="1">
          <mxGeometry x="330" y="470" width="180" height="20" as="geometry" />
        </mxCell>
        <mxCell id="8gEPXH_LTYy4HOlQ8OhR-430" value="&lt;span style=&quot;text-wrap: nowrap;&quot;&gt;&lt;font style=&quot;&quot; color=&quot;#82b366&quot;&gt;pre-fetch &lt;b&gt;headroom&lt;/b&gt;&lt;/font&gt;&amp;nbsp;&lt;/span&gt;&lt;font style=&quot;text-wrap: nowrap;&quot; color=&quot;#b3b3b3&quot;&gt;(tuning config)&lt;/font&gt;" style="text;html=1;align=left;verticalAlign=middle;whiteSpace=wrap;rounded=0;" vertex="1" parent="1">
          <mxGeometry x="330" y="490" width="180" height="20" as="geometry" />
        </mxCell>
        <mxCell id="8gEPXH_LTYy4HOlQ8OhR-431" value="&lt;span style=&quot;text-wrap: nowrap;&quot;&gt;= latency&lt;/span&gt;" style="text;html=1;align=left;verticalAlign=middle;whiteSpace=wrap;rounded=0;fontColor=#D6B656;" vertex="1" parent="1">
          <mxGeometry x="830" y="470" width="60" height="20" as="geometry" />
        </mxCell>
        <mxCell id="8gEPXH_LTYy4HOlQ8OhR-432" value="" style="endArrow=openThin;html=1;rounded=0;fillColor=#fff2cc;strokeColor=#d6b656;endSize=4;endFill=0;dashed=1;dashPattern=1 1;" edge="1" parent="1">
          <mxGeometry width="50" height="50" relative="1" as="geometry">
            <mxPoint x="1195" y="320" as="sourcePoint" />
            <mxPoint x="1280" y="460" as="targetPoint" />
          </mxGeometry>
        </mxCell>
        <mxCell id="8gEPXH_LTYy4HOlQ8OhR-433" value="&lt;b&gt;&lt;font color=&quot;#d6b656&quot;&gt;latency&lt;/font&gt;&lt;/b&gt;&amp;nbsp;misses &lt;b&gt;&lt;font color=&quot;#cccccc&quot;&gt;target,&lt;/font&gt;&lt;/b&gt;&lt;br&gt;exceeds &lt;b style=&quot;color: rgb(130, 179, 102);&quot;&gt;headroom,&lt;/b&gt; and&amp;nbsp;incurs &lt;font color=&quot;#b85450&quot;&gt;&lt;b&gt;delay&lt;/b&gt;&lt;/font&gt;" style="text;html=1;align=center;verticalAlign=middle;whiteSpace=wrap;rounded=0;" vertex="1" parent="1">
          <mxGeometry x="1085" y="535" width="125" height="50" as="geometry" />
        </mxCell>
        <mxCell id="8gEPXH_LTYy4HOlQ8OhR-434" style="rounded=0;orthogonalLoop=1;jettySize=auto;html=1;endSize=4;endArrow=openThin;endFill=0;" edge="1" source="8gEPXH_LTYy4HOlQ8OhR-433" parent="1">
          <mxGeometry relative="1" as="geometry">
            <mxPoint x="1215" y="500" as="targetPoint" />
          </mxGeometry>
        </mxCell>
        <mxCell id="8gEPXH_LTYy4HOlQ8OhR-435" value="" style="endArrow=none;html=1;rounded=0;exitX=0.5;exitY=1;exitDx=0;exitDy=0;fillColor=#f8cecc;strokeColor=#b85450;dashed=1;dashPattern=1 1;" edge="1" parent="1">
          <mxGeometry width="50" height="50" relative="1" as="geometry">
            <mxPoint x="1225" y="470" as="sourcePoint" />
            <mxPoint x="1225" y="510" as="targetPoint" />
          </mxGeometry>
        </mxCell>
        <mxCell id="8gEPXH_LTYy4HOlQ8OhR-436" value="" style="endArrow=none;html=1;rounded=0;fillColor=#f8cecc;strokeColor=#CCCCCC;dashed=1;dashPattern=1 1;" edge="1" parent="1">
          <mxGeometry width="50" height="50" relative="1" as="geometry">
            <mxPoint x="1255.17" y="460" as="sourcePoint" />
            <mxPoint x="1255" y="485" as="targetPoint" />
          </mxGeometry>
        </mxCell>
        <mxCell id="8gEPXH_LTYy4HOlQ8OhR-437" value="" style="endArrow=openThin;html=1;rounded=0;fillColor=#f8cecc;strokeColor=#CCCCCC;endFill=0;startArrow=openThin;startFill=0;endSize=4;startSize=4;" edge="1" parent="1">
          <mxGeometry width="50" height="50" relative="1" as="geometry">
            <mxPoint x="1225" y="480" as="sourcePoint" />
            <mxPoint x="1255" y="480" as="targetPoint" />
          </mxGeometry>
        </mxCell>
        <mxCell id="8gEPXH_LTYy4HOlQ8OhR-438" value="" style="endArrow=none;html=1;rounded=0;fillColor=#fff2cc;strokeColor=#d6b656;dashed=1;dashPattern=1 1;" edge="1" parent="1">
          <mxGeometry width="50" height="50" relative="1" as="geometry">
            <mxPoint x="1280.17" y="460" as="sourcePoint" />
            <mxPoint x="1280" y="510" as="targetPoint" />
          </mxGeometry>
        </mxCell>
        <mxCell id="8gEPXH_LTYy4HOlQ8OhR-439" value="" style="endArrow=openThin;html=1;rounded=0;fillColor=#fff2cc;strokeColor=#d6b656;endFill=0;startArrow=openThin;startFill=0;endSize=4;startSize=4;" edge="1" parent="1">
          <mxGeometry width="50" height="50" relative="1" as="geometry">
            <mxPoint x="1225" y="499.76" as="sourcePoint" />
            <mxPoint x="1280" y="500" as="targetPoint" />
          </mxGeometry>
        </mxCell>
        <mxCell id="8gEPXH_LTYy4HOlQ8OhR-440" value="" style="endArrow=none;html=1;rounded=0;fillColor=#f8cecc;strokeColor=#b85450;dashed=1;dashPattern=1 1;exitX=0.5;exitY=1;exitDx=0;exitDy=0;" edge="1" parent="1" source="8gEPXH_LTYy4HOlQ8OhR-266">
          <mxGeometry width="50" height="50" relative="1" as="geometry">
            <mxPoint x="1265.17" y="470" as="sourcePoint" />
            <mxPoint x="1265" y="495" as="targetPoint" />
          </mxGeometry>
        </mxCell>
        <mxCell id="8gEPXH_LTYy4HOlQ8OhR-441" value="" style="endArrow=openThin;html=1;rounded=0;fillColor=#f8cecc;strokeColor=#b85450;endFill=0;startArrow=openThin;startFill=0;endSize=4;startSize=4;" edge="1" parent="1">
          <mxGeometry width="50" height="50" relative="1" as="geometry">
            <mxPoint x="1265" y="490" as="sourcePoint" />
            <mxPoint x="1280" y="490" as="targetPoint" />
          </mxGeometry>
        </mxCell>
        <mxCell id="8gEPXH_LTYy4HOlQ8OhR-442" value="" style="endArrow=openThin;html=1;rounded=0;fillColor=#d5e8d4;strokeColor=#82b366;endFill=0;startArrow=openThin;startFill=0;endSize=4;startSize=4;" edge="1" parent="1">
          <mxGeometry width="50" height="50" relative="1" as="geometry">
            <mxPoint x="1225" y="490" as="sourcePoint" />
            <mxPoint x="1265" y="490" as="targetPoint" />
          </mxGeometry>
        </mxCell>
      </root>
    </mxGraphModel>
  </diagram>
</mxfile>
